<svg xmlns="http://www.w3.org/2000/svg" xmlns:xlink="http://www.w3.org/1999/xlink" viewBox="0,0,255.99538,255.99538" width="48px" height="48px"><defs><linearGradient x1="17.846" y1="15.541" x2="27.078" y2="31.153" gradientUnits="userSpaceOnUse" id="color-1"><stop offset="0" stop-color="#ffffff"></stop><stop offset="1" stop-color="#f1e5fc"></stop></linearGradient></defs><g fill="none" fill-rule="nonzero" stroke="none" stroke-width="1" stroke-linecap="butt" stroke-linejoin="miter" stroke-miterlimit="10" stroke-dasharray="" stroke-dashoffset="0" font-family="none" font-weight="none" font-size="none" text-anchor="none" style="mix-blend-mode: normal"><g transform="translate(-1.60267,17.76267) scale(5.33333,5.33333)"><path d="M6.391,10.671c-0.085,-2.448 1.822,-4.706 4.401,-4.706h26.42c2.578,0 4.486,2.258 4.401,4.706c-0.082,2.352 0.024,5.398 0.791,7.882c0.769,2.492 2.066,4.067 4.19,4.269v2.295c-2.124,0.202 -3.421,1.777 -4.19,4.269c-0.767,2.484 -0.873,5.53 -0.791,7.882c0.085,2.448 -1.822,4.706 -4.401,4.706h-26.42c-2.578,0 -4.486,-2.258 -4.4,-4.706c0.082,-2.352 -0.025,-5.398 -0.791,-7.882c-0.769,-2.492 -2.069,-4.067 -4.194,-4.269v-2.295c2.124,-0.202 3.425,-1.777 4.194,-4.269c0.766,-2.483 0.872,-5.53 0.79,-7.882z" fill="#6c19ff"></path><path d="M25.042,34.016c4.366,0 6.997,-2.138 6.997,-5.664c0,-2.665 -1.877,-4.595 -4.665,-4.9v-0.111c2.048,-0.333 3.655,-2.235 3.655,-4.359c0,-3.026 -2.389,-4.997 -6.03,-4.997h-8.192v20.031zM19.994,16.525h4.238c2.304,0 3.612,1.027 3.612,2.887c0,1.985 -1.522,3.096 -4.281,3.096h-3.57v-5.983zM19.994,31.475v-6.594h4.21c3.015,0 4.579,1.11 4.579,3.276c0,2.165 -1.522,3.318 -4.394,3.318z" fill="url(#color-1)"></path></g></g><g fill="#ffffff" fill-rule="nonzero" stroke="none" stroke-width="1" stroke-linecap="butt" stroke-linejoin="miter" stroke-miterlimit="10" stroke-dasharray="" stroke-dashoffset="0" font-family="none" font-weight="none" font-size="none" text-anchor="none" style="mix-blend-mode: normal"><g><path d="M99.85833,27.435v0c-1.76,1.73333 -3.82,2.6 -6.18,2.6v0c-3.02,0 -5.43667,-1.03333 -7.25,-3.1c-1.80667,-2.07333 -2.71,-4.86667 -2.71,-8.38v0c0,-2.23333 0.48667,-4.28667 1.46,-6.16c0.98,-1.86667 2.34333,-3.32 4.09,-4.36c1.75333,-1.03333 3.72333,-1.55 5.91,-1.55v0c2.24667,0 4.24667,0.56 6,1.68c1.74667,1.12667 3.10333,2.74667 4.07,4.86c0.97333,2.10667 1.46667,4.52 1.48,7.24v0v2.51c0,5.68667 -1.41333,10.15333 -4.24,13.4c-2.82667,3.25333 -6.83333,4.98667 -12.02,5.2v0l-1.67,0.03v-5.65l1.5,-0.02c5.89333,-0.26667 9.08,-3.03333 9.56,-8.3zM95.33833,24.855v0c1.09333,0 2.03333,-0.28 2.82,-0.84c0.79333,-0.56667 1.39333,-1.24667 1.8,-2.04v0v-2.79c0,-2.3 -0.43667,-4.08 -1.31,-5.34c-0.88,-1.26667 -2.05333,-1.9 -3.52,-1.9v0c-1.36,0 -2.47667,0.62 -3.35,1.86c-0.87333,1.24 -1.31,2.8 -1.31,4.68v0c0,1.86 0.42333,3.38667 1.27,4.58c0.85333,1.19333 2.05333,1.79 3.6,1.79zM134.52833,20.685v6.28c0,4.72 -0.97667,8.33 -2.93,10.83c-1.95333,2.5 -4.81333,3.75 -8.58,3.75v0c-3.72,0 -6.56333,-1.22667 -8.53,-3.68c-1.96667,-2.45333 -2.97333,-5.97 -3.02,-10.55v0v-6.28c0,-4.76667 0.98667,-8.38333 2.96,-10.85c1.98,-2.46667 4.82667,-3.7 8.54,-3.7c3.72,0 6.56333,1.22 8.53,3.66c1.97333,2.44667 2.98333,5.96 3.03,10.54zM127.74833,28.185v-8.11c0,-2.82667 -0.38667,-4.88667 -1.16,-6.18c-0.77333,-1.28667 -1.98,-1.93 -3.62,-1.93v0c-1.59333,0 -2.76667,0.61333 -3.52,1.84c-0.76,1.22667 -1.16333,3.14333 -1.21,5.75v0v8.3c0,2.78 0.38,4.84667 1.14,6.2c0.75333,1.35333 1.96667,2.03 3.64,2.03v0c1.65333,0 2.85,-0.65 3.59,-1.95c0.73333,-1.29333 1.11333,-3.27667 1.14,-5.95zM138.99833,15.175v-1.66c0,-2.09333 0.68,-3.79333 2.04,-5.1c1.36,-1.30667 3.14333,-1.96 5.35,-1.96v0c2.23333,0 4.03,0.64667 5.39,1.94c1.36,1.28667 2.04,3.03 2.04,5.23v0v1.69c0,2.11333 -0.68,3.81 -2.04,5.09c-1.36,1.28 -3.14333,1.92 -5.35,1.92v0c-2.21333,0 -4.00333,-0.64333 -5.37,-1.93c-1.37333,-1.29333 -2.06,-3.03333 -2.06,-5.22zM143.49833,13.605v1.71c0,0.94 0.27,1.69333 0.81,2.26c0.54,0.57333 1.24667,0.86 2.12,0.86c0.88,0 1.57667,-0.29 2.09,-0.87c0.51333,-0.57333 0.77,-1.34667 0.77,-2.32v0v-1.73c0,-0.94 -0.25667,-1.7 -0.77,-2.28c-0.51333,-0.57333 -1.22333,-0.86 -2.13,-0.86v0c-0.86,0 -1.55667,0.28333 -2.09,0.85c-0.53333,0.57333 -0.8,1.36667 -0.8,2.38zM155.31833,34.445v-1.74c0,-2.10667 0.68667,-3.80333 2.06,-5.09c1.37333,-1.29333 3.15333,-1.94 5.34,-1.94v0c2.22,0 4.01333,0.63667 5.38,1.91c1.36667,1.27333 2.05,3.02667 2.05,5.26v0v1.69c0,2.09333 -0.67,3.78667 -2.01,5.08c-1.34667,1.28667 -3.13667,1.93 -5.37,1.93v0c-2.24667,0 -4.05,-0.65 -5.41,-1.95c-1.36,-1.29333 -2.04,-3.01 -2.04,-5.15zM159.81833,32.775v1.76c0,0.86 0.28,1.59333 0.84,2.2c0.56,0.61333 1.26333,0.92 2.11,0.92v0c1.90667,0 2.86,-1.05667 2.86,-3.17v0v-1.78c0,-0.93333 -0.26667,-1.68667 -0.8,-2.26c-0.52667,-0.56667 -1.23,-0.85 -2.11,-0.85c-0.87333,0 -1.57667,0.28333 -2.11,0.85c-0.52667,0.57333 -0.79,1.35 -0.79,2.33zM164.42833,11.845l-16.66,26.68l-3.3,-1.79l16.66,-26.67z"></path></g></g></svg>