<svg xmlns="http://www.w3.org/2000/svg" xmlns:xlink="http://www.w3.org/1999/xlink" viewBox="0,0,255.99538,255.99538" width="48px" height="48px"><g fill="none" fill-rule="nonzero" stroke="none" stroke-width="1" stroke-linecap="butt" stroke-linejoin="miter" stroke-miterlimit="10" stroke-dasharray="" stroke-dashoffset="0" font-family="none" font-weight="none" font-size="none" text-anchor="none" style="mix-blend-mode: normal"><g transform="translate(3.39733,24.53333) scale(5.33333,5.33333)"><path d="M24.047,5c-1.555,0.005 -2.633,0.142 -3.936,0.367c-3.848,0.67 -4.549,2.077 -4.549,4.67v3.963h9v2h-9.342h-4.35c-2.636,0 -4.943,1.242 -5.674,4.219c-0.826,3.417 -0.863,5.557 0,9.125c0.655,2.661 2.098,4.656 4.735,4.656h3.632v-5.104c0,-2.966 2.686,-5.896 5.764,-5.896h7.236c2.523,0 5,-1.862 5,-4.377v-8.586c0,-2.439 -1.759,-4.263 -4.218,-4.672c0.061,-0.006 -1.756,-0.371 -3.298,-0.365zM19.063,9c0.821,0 1.5,0.677 1.5,1.502c0,0.833 -0.679,1.498 -1.5,1.498c-0.837,0 -1.5,-0.664 -1.5,-1.498c0,-0.822 0.663,-1.502 1.5,-1.502z" fill="#0277bd"></path><path d="M23.078,43c1.555,-0.005 2.633,-0.142 3.936,-0.367c3.848,-0.67 4.549,-2.077 4.549,-4.67v-3.963h-9v-2h9.343h4.35c2.636,0 4.943,-1.242 5.674,-4.219c0.826,-3.417 0.863,-5.557 0,-9.125c-0.656,-2.661 -2.099,-4.656 -4.736,-4.656h-3.632v5.104c0,2.966 -2.686,5.896 -5.764,5.896h-7.236c-2.523,0 -5,1.862 -5,4.377v8.586c0,2.439 1.759,4.263 4.218,4.672c-0.061,0.006 1.756,0.371 3.298,0.365zM28.063,39c-0.821,0 -1.5,-0.677 -1.5,-1.502c0,-0.833 0.679,-1.498 1.5,-1.498c0.837,0 1.5,0.664 1.5,1.498c0,0.822 -0.664,1.502 -1.5,1.502z" fill="#ffc107"></path></g></g><g fill="#ffffff" fill-rule="nonzero" stroke="none" stroke-width="1" stroke-linecap="butt" stroke-linejoin="miter" stroke-miterlimit="10" stroke-dasharray="" stroke-dashoffset="0" font-family="none" font-weight="none" font-size="none" text-anchor="none" style="mix-blend-mode: normal"><g><path d="M105.49,5.355v21.28h3.87v5.46h-3.87v7.38h-6.77v-7.38h-14l-0.3,-4.27l14.23,-22.47zM98.27,15.355l-7.1,11.28h7.55v-12.05zM119.39,24.025l-5.39,-1.33l1.97,-17.34h19.12v5.64h-13.57l-0.84,7.34c1.60667,-0.86 3.31667,-1.29 5.13,-1.29v0c3.24667,0 5.79333,1.00667 7.64,3.02c1.84667,2.02 2.77,4.84 2.77,8.46v0c0,2.20667 -0.46667,4.18 -1.4,5.92c-0.92667,1.74667 -2.25667,3.1 -3.99,4.06c-1.74,0.96 -3.79,1.44 -6.15,1.44v0c-2.06,0 -3.97333,-0.42 -5.74,-1.26c-1.76667,-0.83333 -3.16,-2.00667 -4.18,-3.52c-1.02667,-1.52 -1.57,-3.24667 -1.63,-5.18v0h6.7c0.14,1.42 0.63667,2.52333 1.49,3.31c0.85333,0.79333 1.96667,1.19 3.34,1.19v0c1.53333,0 2.71333,-0.55 3.54,-1.65c0.82667,-1.10667 1.24,-2.66667 1.24,-4.68v0c0,-1.94 -0.47667,-3.42333 -1.43,-4.45c-0.95333,-1.03333 -2.30333,-1.55 -4.05,-1.55v0c-1.61333,0 -2.92,0.42333 -3.92,1.27v0zM140.43,13.575v-1.66c0,-2.09333 0.68,-3.79333 2.04,-5.1c1.36,-1.30667 3.14333,-1.96 5.35,-1.96v0c2.23333,0 4.03,0.64667 5.39,1.94c1.36,1.28667 2.04,3.03 2.04,5.23v0v1.69c0,2.11333 -0.68,3.81 -2.04,5.09c-1.36,1.28 -3.14333,1.92 -5.35,1.92v0c-2.21333,0 -4.00333,-0.64333 -5.37,-1.93c-1.37333,-1.29333 -2.06,-3.03333 -2.06,-5.22zM144.93,12.005v1.71c0,0.94 0.27,1.69333 0.81,2.26c0.54,0.57333 1.24667,0.86 2.12,0.86c0.88,0 1.57667,-0.29 2.09,-0.87c0.51333,-0.57333 0.77,-1.34667 0.77,-2.32v0v-1.73c0,-0.94 -0.25667,-1.7 -0.77,-2.28c-0.51333,-0.57333 -1.22333,-0.86 -2.13,-0.86v0c-0.86,0 -1.55667,0.28333 -2.09,0.85c-0.53333,0.57333 -0.8,1.36667 -0.8,2.38zM156.75,32.845v-1.74c0,-2.10667 0.68667,-3.80333 2.06,-5.09c1.37333,-1.29333 3.15333,-1.94 5.34,-1.94v0c2.22,0 4.01333,0.63667 5.38,1.91c1.36667,1.27333 2.05,3.02667 2.05,5.26v0v1.69c0,2.09333 -0.67,3.78667 -2.01,5.08c-1.34667,1.28667 -3.13667,1.93 -5.37,1.93v0c-2.24667,0 -4.05,-0.65 -5.41,-1.95c-1.36,-1.29333 -2.04,-3.01 -2.04,-5.15zM161.25,31.175v1.76c0,0.86 0.28,1.59333 0.84,2.2c0.56,0.61333 1.26333,0.92 2.11,0.92v0c1.90667,0 2.86,-1.05667 2.86,-3.17v0v-1.78c0,-0.93333 -0.26667,-1.68667 -0.8,-2.26c-0.52667,-0.56667 -1.23,-0.85 -2.11,-0.85c-0.87333,0 -1.57667,0.28333 -2.11,0.85c-0.52667,0.57333 -0.79,1.35 -0.79,2.33zM165.86,10.245l-16.66,26.68l-3.3,-1.79l16.66,-26.67z"></path></g></g></svg>