<svg xmlns="http://www.w3.org/2000/svg" xmlns:xlink="http://www.w3.org/1999/xlink" viewBox="0,0,255.99538,255.99538" width="48px" height="48px"><g transform="translate(10.23982,10.23982) scale(0.92,0.92)"><g fill="none" fill-rule="nonzero" stroke="none" stroke-width="1" stroke-linecap="butt" stroke-linejoin="miter" stroke-miterlimit="10" stroke-dasharray="" stroke-dashoffset="0" font-family="none" font-weight="none" font-size="none" text-anchor="none" style="mix-blend-mode: normal"><g transform="translate(2.8992,12.80267) scale(5.33333,5.33333)"><path d="M44.083,29.79c-0.183,-0.829 -0.935,-1.796 -2.452,-1.796c-0.31,0 -0.649,0.039 -1.035,0.119c-0.708,0.146 -1.311,0.217 -1.842,0.241c4.133,-7.04 6.816,-16.819 4.159,-20.214c-3.501,-4.473 -8.214,-5.141 -10.711,-5.141l-0.235,0.001c-0.929,0.015 -1.893,0.129 -2.863,0.339l-3.583,0.774c-0.488,-0.061 -0.985,-0.104 -1.503,-0.113h-0.03h-0.016l-0.152,-0.001c-1.593,0 -3.046,0.338 -4.341,0.973l-1.251,-0.493c-1.72,-0.678 -4.308,-1.485 -6.868,-1.485c-0.144,0 -0.287,0.003 -0.431,0.008c-2.522,0.091 -4.688,1.048 -6.265,2.767c-1.968,2.146 -2.864,5.285 -2.661,9.331c0.01,0.209 2.458,20.9 9.397,20.9h0.025l0.064,-0.001c0.901,-0.022 1.76,-0.384 2.563,-1.077c0.613,0.46 1.406,0.732 2.145,0.84c0.488,0.115 1.366,0.278 2.418,0.278c1.284,0 2.442,-0.263 3.44,-0.738c-0.001,0.88 -0.006,1.994 -0.016,3.418l-0.001,0.075l0.005,0.075c0.097,1.419 0.342,2.698 0.711,3.701c1.051,2.859 2.866,4.434 5.111,4.434c0.093,0 0.188,-0.003 0.284,-0.009c1.846,-0.114 3.717,-1.151 5.004,-2.772c1.393,-1.755 1.715,-3.607 1.839,-5.026l0.008,-0.087v-0.088v-4.079l0.103,0.01l0.436,0.038l0.042,0.004l0.042,0.002c0.124,0.006 0.252,0.008 0.381,0.008c1.507,0 3.362,-0.391 4.616,-0.974c1.199,-0.556 3.939,-2.084 3.463,-4.242z" fill="#ffffff"></path><path d="M33,34c0,-0.205 0.012,-0.376 0.018,-0.565c-0.01,-0.251 -0.018,-0.435 -0.018,-0.435c0,0 0.012,-0.009 0.032,-0.022c0.149,-2.673 0.886,-3.703 1.675,-4.29c-0.11,-0.153 -0.237,-0.318 -0.356,-0.475c-0.333,-0.437 -0.748,-0.979 -1.192,-1.674l-0.082,-0.158c-0.067,-0.164 -0.229,-0.447 -0.435,-0.819c-1.183,-2.14 -3.645,-6.592 -1.96,-9.404c0.738,-1.232 2.122,-1.942 4.121,-2.117c-0.817,-2.323 -3.878,-7.926 -10.818,-8.041c-0.002,0 -0.004,0 -0.006,0c-6.041,-0.098 -8.026,5.392 -8.672,8.672c0.89,-0.377 1.906,-0.606 2.836,-0.606c0.014,0 0.029,0 0.043,0c2.29,0.017 3.865,1.239 4.323,3.354c0.335,1.552 0.496,2.91 0.492,4.153c-0.01,2.719 -0.558,4.149 -1.042,5.411l-0.154,0.408c-0.124,0.334 -0.255,0.645 -0.379,0.937c-0.126,0.298 -0.237,0.563 -0.318,0.802c0.484,0.11 0.864,0.265 1.125,0.38l0.151,0.066c0.047,0.02 0.094,0.043 0.137,0.069c0.848,0.516 1.376,1.309 1.489,2.233c0.061,0.498 0.051,3.893 0.03,6.855c0.087,1.285 0.305,2.364 0.593,3.146c0.409,1.114 1.431,3.241 3.394,3.119c1.37,-0.085 2.687,-0.919 3.561,-2.019c0.938,-1.181 1.284,-2.487 1.414,-3.958v-5.022z" fill="#0277bd"></path><path d="M15.114,28.917c-1.613,-1.683 -2.399,-3.947 -2.104,-6.056c0.285,-2.035 0.124,-4.027 0.037,-5.098c-0.029,-0.357 -0.048,-0.623 -0.047,-0.77c0,-0.008 0.002,-0.015 0.003,-0.023c0,-0.004 -0.002,-0.007 -0.002,-0.011c0.121,-3.021 1.286,-7.787 4.493,-10.62c-1.562,-0.615 -4.106,-1.426 -6.494,-1.339c-3.742,0.136 -7.364,2.724 -7,10c0.137,2.73 3.222,19.103 7.44,19c0.603,-0.015 1.229,-0.402 1.872,-1.176c1.017,-1.223 2.005,-2.332 2.708,-3.104c-0.315,-0.239 -0.619,-0.503 -0.906,-0.803zM37.023,14.731c0.015,0.154 0.002,0.286 -0.022,0.408c0.031,0.92 -0.068,1.813 -0.169,2.677c-0.074,0.636 -0.15,1.293 -0.171,1.952c-0.021,0.645 0.07,1.282 0.166,1.956c0.225,1.578 0.459,3.359 -0.765,5.437c0.225,0.296 0.423,0.571 0.581,0.837c4.61,-7.475 6.468,-16.361 4.695,-18.626c-2.683,-3.428 -6.397,-4.42 -9.339,-4.372c-0.921,0.015 -1.758,0.139 -2.473,0.294c5.076,2.46 7.337,7.732 7.497,9.437zM41,30.071c-2.665,0.55 -3.947,0.257 -4.569,-0.126c-0.1,0.072 -0.2,0.133 -0.293,0.19c-0.372,0.225 -0.961,0.583 -1.105,2.782c0.083,0.016 0.156,0.025 0.246,0.044l0.435,0.039c1.32,0.06 3.049,-0.31 4.063,-0.781c2.185,-1.014 3.376,-2.592 1.223,-2.148zM22.023,32.119c-0.037,-0.298 -0.198,-0.539 -0.492,-0.732l-0.108,-0.047c-0.361,-0.159 -0.77,-0.34 -1.423,-0.34h-0.004c-0.127,0.01 -0.253,0.019 -0.38,0.019c-0.052,0 -0.103,-0.007 -0.155,-0.009c-0.474,0.365 -1.148,0.647 -2.816,0.99c-2.98,0.759 -1.221,1.655 -0.078,1.794c1.106,0.277 3.735,0.614 5.481,-0.809c-0.005,-0.448 -0.013,-0.756 -0.025,-0.866z" fill="#0277bd"></path><path d="M20.681,18.501c-0.292,0.302 -0.753,0.566 -1.262,0.484c-0.828,-0.134 -1.463,-1.133 -1.417,-1.508v0c0.044,-0.374 0.751,-0.569 1.578,-0.435c0.287,0.047 0.548,0.128 0.768,0.228c-0.32,-0.688 -0.899,-1.085 -1.782,-1.182c-1.565,-0.174 -3.226,0.644 -3.56,1.097c0.007,0.11 0.02,0.251 0.033,0.417c0.093,1.147 0.265,3.284 -0.05,5.537c-0.208,1.485 0.393,3.169 1.567,4.395c0.757,0.79 1.641,1.29 2.513,1.438c0.111,-0.478 0.309,-0.944 0.513,-1.425c0.113,-0.265 0.233,-0.547 0.346,-0.852l0.162,-0.427c0.443,-1.155 0.9,-2.35 0.909,-4.703c0.004,-0.905 -0.107,-1.938 -0.318,-3.064zM34.847,22.007c-0.104,-0.729 -0.211,-1.484 -0.185,-2.303c0.023,-0.742 0.105,-1.442 0.184,-2.119c0.062,-0.533 0.11,-1.045 0.138,-1.55c-1.289,0.107 -2.145,0.479 -2.551,1.108c0.168,-0.057 0.358,-0.102 0.568,-0.129c0.892,-0.116 1.543,0.141 1.618,0.637c0.055,0.363 -0.253,0.705 -0.388,0.836c-0.277,0.269 -0.626,0.442 -0.981,0.488c-0.064,0.008 -0.129,0.012 -0.192,0.012c-0.353,0 -0.69,-0.121 -0.949,-0.3c0.112,1.973 1.567,4.612 2.283,5.907c0.153,0.277 0.271,0.498 0.369,0.688c0.393,-1.119 0.248,-2.139 0.086,-3.275z" fill="#0277bd"></path></g></g><g fill="#ffffff" fill-rule="nonzero" stroke="none" stroke-width="1" stroke-linecap="butt" stroke-linejoin="miter" stroke-miterlimit="10" stroke-dasharray="" stroke-dashoffset="0" font-family="none" font-weight="none" font-size="none" text-anchor="none" style="mix-blend-mode: normal"><g><path d="M101.10833,-6.73833h1.13v5.58h-0.66c-3.06,0.04667 -5.52667,0.84333 -7.4,2.39c-1.86667,1.54667 -2.98667,3.69667 -3.36,6.45v0c1.81333,-1.84667 4.10333,-2.77 6.87,-2.77v0c2.96667,0 5.32667,1.06333 7.08,3.19c1.74667,2.12667 2.62,4.92333 2.62,8.39v0c0,2.22 -0.48,4.22667 -1.44,6.02c-0.96,1.8 -2.32,3.2 -4.08,4.2c-1.75333,1 -3.74,1.5 -5.96,1.5v0c-3.59333,0 -6.49667,-1.25 -8.71,-3.75c-2.21333,-2.5 -3.32,-5.83667 -3.32,-10.01v0v-2.44c0,-3.7 0.7,-6.97 2.1,-9.81c1.4,-2.83333 3.40667,-5.02667 6.02,-6.58c2.62,-1.55333 5.65667,-2.34 9.11,-2.36zM95.62833,10.35167v0c-1.09333,0 -2.08667,0.28333 -2.98,0.85c-0.89333,0.57333 -1.55,1.33 -1.97,2.27v0v2.06c0,2.26667 0.44667,4.03667 1.34,5.31c0.88667,1.27333 2.13667,1.91 3.75,1.91v0c1.45333,0 2.62667,-0.57333 3.52,-1.72c0.9,-1.15333 1.35,-2.64333 1.35,-4.47v0c0,-1.86 -0.45333,-3.36 -1.36,-4.5c-0.90667,-1.14 -2.12333,-1.71 -3.65,-1.71zM117.79833,12.29167l-5.39,-1.33l1.97,-17.34h19.12v5.64h-13.57l-0.84,7.34c1.60667,-0.86 3.31667,-1.29 5.13,-1.29v0c3.24667,0 5.79333,1.00667 7.64,3.02c1.84667,2.02 2.77,4.84 2.77,8.46v0c0,2.20667 -0.46667,4.18 -1.4,5.92c-0.92667,1.74667 -2.25667,3.1 -3.99,4.06c-1.74,0.96 -3.79,1.44 -6.15,1.44v0c-2.06,0 -3.97333,-0.42 -5.74,-1.26c-1.76667,-0.83333 -3.16,-2.00667 -4.18,-3.52c-1.02667,-1.52 -1.57,-3.24667 -1.63,-5.18v0h6.7c0.14,1.42 0.63667,2.52333 1.49,3.31c0.85333,0.79333 1.96667,1.19 3.34,1.19v0c1.53333,0 2.71333,-0.55 3.54,-1.65c0.82667,-1.10667 1.24,-2.66667 1.24,-4.68v0c0,-1.94 -0.47667,-3.42333 -1.43,-4.45c-0.95333,-1.03333 -2.30333,-1.55 -4.05,-1.55v0c-1.61333,0 -2.92,0.42333 -3.92,1.27v0zM138.83833,1.84167v-1.66c0,-2.09333 0.68,-3.79333 2.04,-5.1c1.36,-1.30667 3.14333,-1.96 5.35,-1.96v0c2.23333,0 4.03,0.64667 5.39,1.94c1.36,1.28667 2.04,3.03 2.04,5.23v0v1.69c0,2.11333 -0.68,3.81 -2.04,5.09c-1.36,1.28 -3.14333,1.92 -5.35,1.92v0c-2.21333,0 -4.00333,-0.64333 -5.37,-1.93c-1.37333,-1.29333 -2.06,-3.03333 -2.06,-5.22zM143.33833,0.27167v1.71c0,0.94 0.27,1.69333 0.81,2.26c0.54,0.57333 1.24667,0.86 2.12,0.86c0.88,0 1.57667,-0.29 2.09,-0.87c0.51333,-0.57333 0.77,-1.34667 0.77,-2.32v0v-1.73c0,-0.94 -0.25667,-1.7 -0.77,-2.28c-0.51333,-0.57333 -1.22333,-0.86 -2.13,-0.86v0c-0.86,0 -1.55667,0.28333 -2.09,0.85c-0.53333,0.57333 -0.8,1.36667 -0.8,2.38zM155.15833,21.11167v-1.74c0,-2.10667 0.68667,-3.80333 2.06,-5.09c1.37333,-1.29333 3.15333,-1.94 5.34,-1.94v0c2.22,0 4.01333,0.63667 5.38,1.91c1.36667,1.27333 2.05,3.02667 2.05,5.26v0v1.69c0,2.09333 -0.67,3.78667 -2.01,5.08c-1.34667,1.28667 -3.13667,1.93 -5.37,1.93v0c-2.24667,0 -4.05,-0.65 -5.41,-1.95c-1.36,-1.29333 -2.04,-3.01 -2.04,-5.15zM159.65833,19.44167v1.76c0,0.86 0.28,1.59333 0.84,2.2c0.56,0.61333 1.26333,0.92 2.11,0.92v0c1.90667,0 2.86,-1.05667 2.86,-3.17v0v-1.78c0,-0.93333 -0.26667,-1.68667 -0.8,-2.26c-0.52667,-0.56667 -1.23,-0.85 -2.11,-0.85c-0.87333,0 -1.57667,0.28333 -2.11,0.85c-0.52667,0.57333 -0.79,1.35 -0.79,2.33zM164.26833,-1.48833l-16.66,26.68l-3.3,-1.79l16.66,-26.67z"></path></g></g></g></svg>