<svg xmlns="http://www.w3.org/2000/svg" xmlns:xlink="http://www.w3.org/1999/xlink" viewBox="0,0,255.99538,255.99538" width="48px" height="48px"><g fill="none" fill-rule="nonzero" stroke="none" stroke-width="1" stroke-linecap="butt" stroke-linejoin="miter" stroke-miterlimit="10" stroke-dasharray="" stroke-dashoffset="0" font-family="none" font-weight="none" font-size="none" text-anchor="none" style="mix-blend-mode: normal"><g transform="translate(-1.6,31.34138) scale(5.33333,5.33333)"><path d="M17.204,19.122l-4.907,2.715c-0.184,0.101 -0.297,0.289 -0.297,0.492v5.433c0,0.203 0.113,0.39 0.297,0.492l4.908,2.717c0.183,0.101 0.41,0.101 0.593,0l4.907,-2.717c0.182,-0.102 0.295,-0.289 0.295,-0.492v-5.433c0,-0.203 -0.113,-0.39 -0.297,-0.492l-4.906,-2.715c-0.092,-0.051 -0.195,-0.076 -0.297,-0.076c-0.103,0 -0.205,0.025 -0.297,0.076M42.451,24.013l-0.818,0.452c-0.031,0.017 -0.049,0.048 -0.049,0.082v0.906c0,0.034 0.019,0.065 0.049,0.082l0.818,0.453c0.031,0.017 0.068,0.017 0.099,0l0.818,-0.453c0.03,-0.017 0.049,-0.048 0.049,-0.082v-0.906c0,-0.034 -0.019,-0.065 -0.05,-0.082l-0.818,-0.452c-0.015,-0.009 -0.032,-0.013 -0.049,-0.013c-0.017,0 -0.034,0.004 -0.049,0.013" fill="#388e3c"></path><path d="M35.751,13.364l-2.389,-1.333c-0.075,-0.042 -0.167,-0.041 -0.241,0.003c-0.074,0.044 -0.12,0.123 -0.12,0.209l-0.001,8.052l-2.203,-1.219c-0.092,-0.051 -0.195,-0.076 -0.297,-0.076c-0.102,0 -0.205,0.025 -0.297,0.076h0.001l-4.907,2.715c-0.184,0.101 -0.297,0.289 -0.297,0.491v5.433c0,0.203 0.113,0.39 0.297,0.492l4.908,2.717c0.183,0.101 0.41,0.101 0.593,0l4.907,-2.717c0.182,-0.101 0.295,-0.289 0.295,-0.492v-13.927c0,-0.176 -0.096,-0.338 -0.249,-0.424zM32.866,26.458l-2.23,1.235c-0.083,0.046 -0.186,0.046 -0.269,0l-2.231,-1.235c-0.085,-0.046 -0.136,-0.132 -0.136,-0.224v-2.47c0,-0.092 0.051,-0.177 0.135,-0.224l2.231,-1.234h-0.001c0.042,-0.023 0.088,-0.034 0.135,-0.034c0.047,0 0.093,0.012 0.135,0.034l2.23,1.234c0.084,0.047 0.135,0.133 0.135,0.225v2.47c0,0.091 -0.051,0.177 -0.134,0.223z" fill="#37474f"></path><path d="M17.204,19.122l-5.204,8.64c0,0.203 0.113,0.39 0.297,0.492l4.908,2.717c0.183,0.101 0.41,0.101 0.593,0l5.202,-8.642c0,-0.203 -0.113,-0.39 -0.297,-0.492l-4.906,-2.715c-0.092,-0.051 -0.195,-0.076 -0.297,-0.076c-0.103,0 -0.205,0.025 -0.297,0.076" fill="#2e7d32"></path><path d="M17.204,19.122l-4.907,2.715c-0.184,0.101 -0.297,0.289 -0.297,0.492l5.204,8.642c0.183,0.101 0.41,0.101 0.593,0l4.907,-2.717c0.183,-0.102 0.296,-0.289 0.296,-0.492l-5.203,-8.64c-0.092,-0.051 -0.195,-0.076 -0.297,-0.076c-0.103,0 -0.205,0.025 -0.297,0.076" fill="#4caf50"></path><path d="M47.703,21.791l-4.906,-2.715c-0.092,-0.051 -0.195,-0.076 -0.297,-0.076c-0.102,0 -0.205,0.025 -0.297,0.076h0.001l-4.907,2.715c-0.183,0.101 -0.297,0.293 -0.297,0.503v5.411c0,0.209 0.114,0.402 0.297,0.503l4.908,2.717c0.184,0.102 0.409,0.102 0.593,0l2.263,-1.253c0.207,-0.115 0.206,-0.412 -0.002,-0.526l-4.924,-2.687c-0.083,-0.047 -0.135,-0.134 -0.135,-0.228v-2.466c0,-0.092 0.05,-0.177 0.13,-0.221l2.235,-1.236h-0.001c0.042,-0.023 0.088,-0.034 0.135,-0.034c0.047,0 0.093,0.012 0.135,0.034l2.235,1.237c0.08,0.044 0.13,0.129 0.13,0.221v2.012c0,0.086 0.046,0.166 0.121,0.209c0.075,0.042 0.167,0.042 0.242,-0.001l2.398,-1.393c0.148,-0.086 0.24,-0.245 0.24,-0.417v-1.88c0,-0.211 -0.114,-0.404 -0.297,-0.505zM10.703,21.791l-4.906,-2.715c-0.092,-0.051 -0.195,-0.076 -0.297,-0.076c-0.102,0 -0.205,0.025 -0.297,0.076h0.001l-4.907,2.715c-0.183,0.101 -0.297,0.293 -0.297,0.503v7.465c0,0.086 0.046,0.166 0.121,0.209c0.075,0.042 0.167,0.042 0.242,-0.001l2.398,-1.393c0.148,-0.086 0.239,-0.245 0.239,-0.417v-4.393c0,-0.092 0.05,-0.177 0.13,-0.221l2.235,-1.236v0c0.042,-0.023 0.088,-0.034 0.135,-0.034c0.047,0 0.093,0.012 0.135,0.034l2.235,1.237c0.08,0.044 0.13,0.129 0.13,0.221v4.393c0,0.172 0.091,0.331 0.24,0.417l2.398,1.393c0.075,0.043 0.167,0.043 0.242,0.001c0.074,-0.044 0.12,-0.124 0.12,-0.21v-7.464c0,-0.21 -0.114,-0.403 -0.297,-0.504z" fill="#37474f"></path></g></g><g fill="#ffffff" fill-rule="nonzero" stroke="none" stroke-width="1" stroke-linecap="butt" stroke-linejoin="miter" stroke-miterlimit="10" stroke-dasharray="" stroke-dashoffset="0" font-family="none" font-weight="none" font-size="none" text-anchor="none" style="mix-blend-mode: normal"><g><path d="M96.96833,16.06333h1.37v6.82h-0.8c-3.74,0.05333 -6.75333,1.02667 -9.04,2.92c-2.28,1.88667 -3.65,4.51333 -4.11,7.88v0c2.22,-2.25333 5.02,-3.38 8.4,-3.38v0c3.62667,0 6.51,1.29667 8.65,3.89c2.14,2.6 3.21,6.02 3.21,10.26v0c0,2.70667 -0.59,5.16 -1.77,7.36c-1.17333,2.19333 -2.83333,3.90333 -4.98,5.13c-2.14667,1.22 -4.57667,1.83 -7.29,1.83v0c-4.39333,0 -7.94,-1.52667 -10.64,-4.58c-2.70667,-3.06 -4.06,-7.14 -4.06,-12.24v0v-2.97c0,-4.52667 0.85667,-8.52333 2.57,-11.99c1.70667,-3.46667 4.16,-6.15 7.36,-8.05c3.2,-1.9 6.91,-2.86 11.13,-2.88zM90.26833,36.94333v0c-1.34,0 -2.55333,0.35 -3.64,1.05c-1.08667,0.69333 -1.89,1.61333 -2.41,2.76v0v2.52c0,2.77333 0.54333,4.93667 1.63,6.49c1.09333,1.56 2.62333,2.34 4.59,2.34v0c1.77333,0 3.21,-0.70333 4.31,-2.11c1.1,-1.40667 1.65,-3.22667 1.65,-5.46v0c0,-2.27333 -0.55667,-4.10667 -1.67,-5.5c-1.10667,-1.39333 -2.59333,-2.09 -4.46,-2.09zM117.36833,39.32333l-6.59,-1.63l2.4,-21.2h23.38v6.9h-16.59l-1.03,8.97c1.96667,-1.05333 4.05667,-1.58 6.27,-1.58v0c3.97333,0 7.08667,1.23333 9.34,3.7c2.25333,2.46 3.38,5.90667 3.38,10.34v0c0,2.69333 -0.56667,5.10333 -1.7,7.23c-1.14,2.13333 -2.77,3.78667 -4.89,4.96c-2.12,1.17333 -4.62,1.76 -7.5,1.76v0c-2.52,0 -4.86,-0.51 -7.02,-1.53c-2.16,-1.02667 -3.86333,-2.46333 -5.11,-4.31c-1.25333,-1.85333 -1.91667,-3.96333 -1.99,-6.33v0h8.19c0.17333,1.73333 0.78,3.08333 1.82,4.05c1.04,0.96667 2.4,1.45 4.08,1.45v0c1.87333,0 3.31667,-0.67333 4.33,-2.02c1.00667,-1.34667 1.51,-3.25333 1.51,-5.72v0c0,-2.36667 -0.58,-4.18 -1.74,-5.44c-1.16667,-1.26 -2.82,-1.89 -4.96,-1.89v0c-1.96667,0 -3.56,0.51333 -4.78,1.54v0zM143.08833,26.54333v-2.03c0,-2.56 0.83,-4.63667 2.49,-6.23c1.66,-1.59333 3.83667,-2.39 6.53,-2.39v0c2.73333,0 4.93,0.78667 6.59,2.36c1.66,1.57333 2.49,3.70667 2.49,6.4v0v2.06c0,2.58 -0.83,4.65333 -2.49,6.22c-1.66,1.56667 -3.83667,2.35 -6.53,2.35v0c-2.71333,0 -4.90333,-0.78667 -6.57,-2.36c-1.67333,-1.58 -2.51,-3.70667 -2.51,-6.38zM148.58833,24.62333v2.09c0,1.14667 0.33,2.07 0.99,2.77c0.66,0.69333 1.52333,1.04 2.59,1.04c1.06667,0 1.91667,-0.35333 2.55,-1.06c0.62667,-0.7 0.94,-1.64333 0.94,-2.83v0v-2.12c0,-1.14667 -0.31333,-2.07333 -0.94,-2.78c-0.63333,-0.70667 -1.50333,-1.06 -2.61,-1.06v0c-1.04667,0 -1.89667,0.35 -2.55,1.05c-0.64667,0.69333 -0.97,1.66 -0.97,2.9zM163.02833,50.09333v-2.12c0,-2.58 0.84,-4.65667 2.52,-6.23c1.68,-1.57333 3.85667,-2.36 6.53,-2.36v0c2.71333,0 4.90333,0.77667 6.57,2.33c1.67333,1.56 2.51,3.70333 2.51,6.43v0v2.06c0,2.56 -0.82,4.63 -2.46,6.21c-1.64667,1.57333 -3.83333,2.36 -6.56,2.36v0c-2.75333,0 -4.96,-0.79333 -6.62,-2.38c-1.66,-1.58667 -2.49,-3.68667 -2.49,-6.3zM168.52833,48.06333v2.14c0,1.05333 0.34333,1.95333 1.03,2.7c0.68667,0.74 1.54667,1.11 2.58,1.11v0c2.32667,0 3.49,-1.28667 3.49,-3.86v0v-2.18c0,-1.14667 -0.32333,-2.06667 -0.97,-2.76c-0.65333,-0.7 -1.51333,-1.05 -2.58,-1.05c-1.07333,0 -1.93333,0.35 -2.58,1.05c-0.64667,0.69333 -0.97,1.64333 -0.97,2.85zM174.16833,22.48333l-20.37,32.59l-4.04,-2.17l20.37,-32.6z"></path></g></g></svg>