<svg xmlns="http://www.w3.org/2000/svg" xmlns:xlink="http://www.w3.org/1999/xlink" viewBox="0,0,255.99538,255.99538" width="48px" height="48px"><g transform="translate(6.39988,6.39988) scale(0.95,0.95)"><g fill="#f4511e" fill-rule="nonzero" stroke="none" stroke-width="1" stroke-linecap="butt" stroke-linejoin="miter" stroke-miterlimit="10" stroke-dasharray="" stroke-dashoffset="0" font-family="none" font-weight="none" font-size="none" text-anchor="none" style="mix-blend-mode: normal"><g transform="translate(1.06667,27.73333) scale(5.33333,5.33333)"><path d="M42.2,22.1l-16.3,-16.3c-0.5,-0.5 -1.2,-0.8 -1.9,-0.8v0c-0.7,0 -1.4,0.3 -1.9,0.8l-3.5,3.5l4.1,4.1c0.4,-0.2 0.8,-0.3 1.3,-0.3c1.7,0 3,1.3 3,3c0,0.5 -0.1,0.9 -0.3,1.3l4,4c0.4,-0.2 0.8,-0.3 1.3,-0.3c1.7,0 3,1.3 3,3c0,1.7 -1.3,3 -3,3c-1.7,0 -3,-1.3 -3,-3c0,-0.5 0.1,-0.9 0.3,-1.3l-4,-4c-0.1,0 -0.2,0.1 -0.3,0.1v10.4c1.2,0.4 2,1.5 2,2.8c0,1.7 -1.3,3 -3,3c-1.7,0 -3,-1.3 -3,-3c0,-1.3 0.8,-2.4 2,-2.8v-10.5c-1.2,-0.4 -2,-1.5 -2,-2.8c0,-0.5 0.1,-0.9 0.3,-1.3l-4.1,-4.1l-11.4,11.5c-0.5,0.5 -0.8,1.2 -0.8,1.9c0,0.7 0.3,1.4 0.8,1.9l16.3,16.3v0c0.5,0.5 1.2,0.8 1.9,0.8c0.7,0 1.4,-0.3 1.9,-0.8l16.3,-16.3c0.5,-0.5 0.8,-1.2 0.8,-1.9c0,-0.7 -0.3,-1.4 -0.8,-1.9z"></path></g></g><g fill="#ffffff" fill-rule="nonzero" stroke="none" stroke-width="1" stroke-linecap="butt" stroke-linejoin="miter" stroke-miterlimit="10" stroke-dasharray="" stroke-dashoffset="0" font-family="none" font-weight="none" font-size="none" text-anchor="none" style="mix-blend-mode: normal"><g><path d="M107.22,14.425v0c0,1.65333 -0.41333,3.12 -1.24,4.4c-0.82667,1.28 -1.96667,2.30333 -3.42,3.07v0c1.65333,0.8 2.96667,1.89667 3.94,3.29c0.96667,1.4 1.45,3.04667 1.45,4.94v0c0,3.03333 -1.03,5.42667 -3.09,7.18c-2.06667,1.76 -4.87333,2.64 -8.42,2.64c-3.54667,0 -6.36,-0.88333 -8.44,-2.65c-2.07333,-1.76667 -3.11,-4.15667 -3.11,-7.17v0c0,-1.89333 0.48333,-3.54333 1.45,-4.95c0.96667,-1.40667 2.27,-2.5 3.91,-3.28v0c-1.45333,-0.76667 -2.59,-1.79 -3.41,-3.07c-0.82,-1.28 -1.23,-2.74667 -1.23,-4.4v0c0,-2.90667 0.97,-5.22333 2.91,-6.95c1.94,-1.72667 4.57333,-2.59 7.9,-2.59v0c3.31333,0 5.94,0.85333 7.88,2.56c1.94667,1.71333 2.92,4.04 2.92,6.98zM101.15,29.635v0c0,-1.48667 -0.43,-2.67667 -1.29,-3.57c-0.86,-0.88667 -2.01667,-1.33 -3.47,-1.33v0c-1.43333,0 -2.58,0.44 -3.44,1.32c-0.86,0.88667 -1.29,2.08 -1.29,3.58v0c0,1.45333 0.42333,2.62333 1.27,3.51c0.84,0.89333 2.01,1.34 3.51,1.34v0c1.46667,0 2.62,-0.43 3.46,-1.29c0.83333,-0.86 1.25,-2.04667 1.25,-3.56zM100.45,14.745v0c0,-1.32667 -0.35333,-2.39333 -1.06,-3.2c-0.7,-0.8 -1.69,-1.2 -2.97,-1.2v0c-1.26667,0 -2.25333,0.39 -2.96,1.17c-0.7,0.78 -1.05,1.85667 -1.05,3.23v0c0,1.36 0.35,2.45333 1.05,3.28c0.70667,0.83333 1.7,1.25 2.98,1.25c1.28,0 2.27,-0.41667 2.97,-1.25c0.69333,-0.82667 1.04,-1.92 1.04,-3.28zM118.92,24.025l-5.39,-1.33l1.97,-17.34h19.12v5.64h-13.57l-0.84,7.34c1.60667,-0.86 3.31667,-1.29 5.13,-1.29v0c3.24667,0 5.79333,1.00667 7.64,3.02c1.84667,2.02 2.77,4.84 2.77,8.46v0c0,2.20667 -0.46667,4.18 -1.4,5.92c-0.92667,1.74667 -2.25667,3.1 -3.99,4.06c-1.74,0.96 -3.79,1.44 -6.15,1.44v0c-2.06,0 -3.97333,-0.42 -5.74,-1.26c-1.76667,-0.83333 -3.16,-2.00667 -4.18,-3.52c-1.02667,-1.52 -1.57,-3.24667 -1.63,-5.18v0h6.7c0.14,1.42 0.63667,2.52333 1.49,3.31c0.85333,0.79333 1.96667,1.19 3.34,1.19v0c1.53333,0 2.71333,-0.55 3.54,-1.65c0.82667,-1.10667 1.24,-2.66667 1.24,-4.68v0c0,-1.94 -0.47667,-3.42333 -1.43,-4.45c-0.95333,-1.03333 -2.30333,-1.55 -4.05,-1.55v0c-1.61333,0 -2.92,0.42333 -3.92,1.27v0zM139.96,13.575v-1.66c0,-2.09333 0.68,-3.79333 2.04,-5.1c1.36,-1.30667 3.14333,-1.96 5.35,-1.96v0c2.23333,0 4.03,0.64667 5.39,1.94c1.36,1.28667 2.04,3.03 2.04,5.23v0v1.69c0,2.11333 -0.68,3.81 -2.04,5.09c-1.36,1.28 -3.14333,1.92 -5.35,1.92v0c-2.21333,0 -4.00333,-0.64333 -5.37,-1.93c-1.37333,-1.29333 -2.06,-3.03333 -2.06,-5.22zM144.46,12.005v1.71c0,0.94 0.27,1.69333 0.81,2.26c0.54,0.57333 1.24667,0.86 2.12,0.86c0.88,0 1.57667,-0.29 2.09,-0.87c0.51333,-0.57333 0.77,-1.34667 0.77,-2.32v0v-1.73c0,-0.94 -0.25667,-1.7 -0.77,-2.28c-0.51333,-0.57333 -1.22333,-0.86 -2.13,-0.86v0c-0.86,0 -1.55667,0.28333 -2.09,0.85c-0.53333,0.57333 -0.8,1.36667 -0.8,2.38zM156.28,32.845v-1.74c0,-2.10667 0.68667,-3.80333 2.06,-5.09c1.37333,-1.29333 3.15333,-1.94 5.34,-1.94v0c2.22,0 4.01333,0.63667 5.38,1.91c1.36667,1.27333 2.05,3.02667 2.05,5.26v0v1.69c0,2.09333 -0.67,3.78667 -2.01,5.08c-1.34667,1.28667 -3.13667,1.93 -5.37,1.93v0c-2.24667,0 -4.05,-0.65 -5.41,-1.95c-1.36,-1.29333 -2.04,-3.01 -2.04,-5.15zM160.78,31.175v1.76c0,0.86 0.28,1.59333 0.84,2.2c0.56,0.61333 1.26333,0.92 2.11,0.92v0c1.90667,0 2.86,-1.05667 2.86,-3.17v0v-1.78c0,-0.93333 -0.26667,-1.68667 -0.8,-2.26c-0.52667,-0.56667 -1.23,-0.85 -2.11,-0.85c-0.87333,0 -1.57667,0.28333 -2.11,0.85c-0.52667,0.57333 -0.79,1.35 -0.79,2.33zM165.39,10.245l-16.66,26.68l-3.3,-1.79l16.66,-26.67z"></path></g></g></g></svg>