<svg xmlns="http://www.w3.org/2000/svg" xmlns:xlink="http://www.w3.org/1999/xlink" viewBox="0,0,255.99538,255.99538" width="48px" height="48px"><defs><linearGradient x1="9.8" y1="25.236" x2="11.081" y2="36.899" gradientUnits="userSpaceOnUse" id="color-1"><stop offset="0" stop-color="#058f92"></stop><stop offset="0.5" stop-color="#038489"></stop><stop offset="1" stop-color="#026d71"></stop></linearGradient><linearGradient x1="34.224" y1="25.644" x2="35.101" y2="35.217" gradientUnits="userSpaceOnUse" id="color-2"><stop offset="0" stop-color="#ff9c0f"></stop><stop offset="0.813" stop-color="#d67e00"></stop></linearGradient><linearGradient x1="35.029" y1="11.716" x2="40.355" y2="26.75" gradientUnits="userSpaceOnUse" id="color-3"><stop offset="0" stop-color="#058f92"></stop><stop offset="0.5" stop-color="#038489"></stop><stop offset="1" stop-color="#026d71"></stop></linearGradient></defs><g fill="none" fill-rule="nonzero" stroke="none" stroke-width="1" stroke-linecap="butt" stroke-linejoin="miter" stroke-miterlimit="10" stroke-dasharray="" stroke-dashoffset="0" font-family="none" font-weight="none" font-size="none" text-anchor="none" style="mix-blend-mode: normal"><g transform="scale(5.33333,5.33333)"><path d="M0.002,35.041h1.92v-7.085l2.667,6.057c0.329,0.755 0.779,1.022 1.662,1.022c0.883,0 1.315,-0.267 1.644,-1.022l2.667,-5.902v6.93h1.92v-7.258c0,-0.697 -0.277,-1.035 -0.849,-1.209c-1.367,-0.43 -2.285,-0.059 -2.7,0.872l-2.735,6.16l-2.649,-6.16c-0.398,-0.93 -1.332,-1.302 -2.7,-0.872c-0.572,0.174 -0.849,0.511 -0.849,1.208v7.258h0.002zM13.441,29.281h1.92v4.055c-0.015,0.2 0.064,0.731 0.99,0.745c0.472,0.008 2.821,0 2.85,0v-4.8h1.92c0.008,0 0,5.968 0,5.993c0.01,1.472 -1.828,1.662 -2.673,1.687h-5.006v-0.96c0.01,0 4.787,0.001 4.801,0c1.088,-0.115 0.959,-0.714 0.959,-0.896v-0.064h-3.012c-1.67,-0.015 -2.735,-0.751 -2.747,-1.59c-0.002,-0.078 0.036,-4.134 -0.002,-4.17z" fill="url(#color-1)"></path><path d="M22.081,35.041h4.807c0.63,0 1.242,-0.132 1.728,-0.36c0.81,-0.372 1.144,-0.875 1.144,-1.536v-1.368c0,-1.476 -1.83,-1.536 -2.88,-1.536h-1.92c-0.755,0 -0.87,-0.456 -0.96,-0.96v-0.96c0.09,-0.384 0.258,-0.9 0.923,-0.96c0.773,0 4.836,0 4.836,0v-0.96h-4.566c-0.755,0 -3.114,0.09 -3.114,1.92v1.187c0,0.84 0.738,1.524 2.34,1.692c0.18,0.012 0.36,0.024 0.539,0.024c0,0 1.866,-0.036 1.92,-0.024c1.08,0 0.96,0.84 0.96,0.96v0.96c0,0.132 -0.03,0.96 -0.971,0.96c-0.072,0 -4.789,0 -4.789,0v0.961zM40.32,33.08c0,1.159 0.655,1.809 2.392,1.939c0.162,0.011 0.325,0.021 0.488,0.021h4.8v-0.96h-4.435c-0.991,0 -1.325,-0.416 -1.325,-1.011v-6.669h-1.92zM30.704,33.121v-4.8c0,-1.02 0.5,-1.724 1.916,-1.92h0.672h3.447h0.525c1.416,0.196 2.08,0.899 2.08,1.92v4.782c0,0.827 -0.215,1.271 -0.916,1.559l1.488,1.338h-2.16l-1.07,-0.96h-1.257l-2.136,0.012c-0.309,0 -0.635,-0.043 -0.993,-0.141c-1.074,-0.293 -1.596,-0.857 -1.596,-1.79zM32.624,33.121c0.098,0.467 0.473,0.96 1.14,0.96h1.864l-1.068,-0.96h2.175l0.519,0.482c0,0 0.186,-0.152 0.186,-0.482c0,-0.33 -0.016,-4.8 -0.016,-4.8c-0.098,-0.434 -0.538,-0.96 -1.188,-0.96h-2.471c-0.749,0 -1.14,0.548 -1.14,1.058l-0.001,4.702z" fill="url(#color-2)"></path><path d="M46.199,25.389c-1.031,-0.028 -1.818,0.068 -2.491,0.351c-0.191,0.081 -0.496,0.083 -0.528,0.323c0.105,0.11 0.121,0.275 0.205,0.41c0.16,0.26 0.432,0.609 0.674,0.791c0.265,0.2 0.538,0.414 0.821,0.587c0.504,0.307 1.067,0.483 1.553,0.791c0.286,0.181 0.57,0.411 0.85,0.615c0.138,0.102 0.23,0.259 0.41,0.323c0,-0.01 0,-0.019 0,-0.029c-0.094,-0.12 -0.119,-0.285 -0.205,-0.411c-0.127,-0.127 -0.254,-0.254 -0.381,-0.381c-0.372,-0.494 -0.846,-0.929 -1.348,-1.289c-0.401,-0.288 -1.298,-0.677 -1.466,-1.143c-0.01,-0.01 -0.019,-0.019 -0.03,-0.03c0.284,-0.032 0.617,-0.135 0.879,-0.205c0.441,-0.118 0.834,-0.087 1.289,-0.205c0.205,-0.059 0.41,-0.117 0.615,-0.176c0,-0.039 0,-0.078 0,-0.117c-0.23,-0.236 -0.395,-0.548 -0.645,-0.762c-0.657,-0.559 -1.373,-1.117 -2.11,-1.583c-0.409,-0.258 -0.915,-0.426 -1.348,-0.645c-0.146,-0.074 -0.402,-0.112 -0.498,-0.234c-0.228,-0.29 -0.351,-0.659 -0.527,-0.996c-0.368,-0.708 -0.73,-1.482 -1.055,-2.227c-0.223,-0.508 -0.368,-1.01 -0.645,-1.466c-1.331,-2.188 -2.764,-3.509 -4.982,-4.807c-0.472,-0.276 -1.041,-0.385 -1.642,-0.528c-0.323,-0.019 -0.645,-0.039 -0.968,-0.059c-0.197,-0.083 -0.401,-0.323 -0.587,-0.44c-0.735,-0.465 -2.621,-1.475 -3.165,-0.147c-0.344,0.838 0.514,1.656 0.821,2.081c0.215,0.298 0.491,0.632 0.645,0.968c0.101,0.22 0.119,0.441 0.205,0.674c0.213,0.574 0.55,1.228 0.826,1.759c0.139,0.269 0.293,0.551 0.469,0.791c0.108,0.147 0.293,0.212 0.323,0.44c-0.181,0.253 -0.191,0.646 -0.293,0.968c-0.458,1.445 -0.285,3.24 0.381,4.308c0.204,0.328 0.686,1.032 1.348,0.762c0.579,-0.236 0.45,-0.967 0.615,-1.612c0.037,-0.146 0.014,-0.253 0.088,-0.351c0,0.01 0,0.019 0,0.03c0.176,0.351 0.351,0.704 0.528,1.055c0.391,0.629 1.084,1.286 1.67,1.73c0.304,0.23 0.544,0.628 0.938,0.762c0,-0.01 0,-0.019 0,-0.03c-0.01,0 -0.019,0 -0.03,0c-0.076,-0.119 -0.196,-0.168 -0.293,-0.264c-0.229,-0.225 -0.485,-0.504 -0.674,-0.762c-0.534,-0.725 -1.006,-1.519 -1.436,-2.345c-0.205,-0.395 -0.384,-0.829 -0.557,-1.231c-0.067,-0.155 -0.066,-0.389 -0.205,-0.469c-0.19,0.294 -0.468,0.532 -0.615,0.879c-0.234,0.555 -0.265,1.233 -0.351,1.934c-0.052,0.018 -0.029,0.006 -0.059,0.029c-0.408,-0.099 -0.552,-0.518 -0.704,-0.879c-0.384,-0.912 -0.455,-2.38 -0.117,-3.429c0.087,-0.272 0.482,-1.127 0.323,-1.378c-0.076,-0.251 -0.328,-0.396 -0.468,-0.587c-0.175,-0.236 -0.348,-0.548 -0.469,-0.821c-0.314,-0.711 -0.612,-1.538 -0.943,-2.257c-0.158,-0.344 -0.425,-0.691 -0.645,-0.996c-0.243,-0.338 -0.516,-0.587 -0.704,-0.996c-0.067,-0.145 -0.158,-0.378 -0.059,-0.528c0.032,-0.101 0.076,-0.143 0.176,-0.176c0.17,-0.132 0.643,0.043 0.821,0.117c0.47,0.195 0.862,0.381 1.26,0.645c0.191,0.127 0.384,0.372 0.615,0.44c0.088,0 0.176,0 0.264,0c0.413,0.095 0.875,0.03 1.26,0.147c0.682,0.207 1.292,0.529 1.846,0.879c1.69,1.067 3.071,2.585 4.016,4.397c0.152,0.292 0.218,0.57 0.351,0.879c0.27,0.624 0.611,1.266 0.879,1.876c0.268,0.609 0.53,1.223 0.909,1.73c0.2,0.266 0.97,0.409 1.319,0.557c0.245,0.104 0.647,0.211 0.879,0.351c0.444,0.268 0.874,0.587 1.289,0.879c0.212,0.147 0.851,0.468 0.883,0.733z" fill="url(#color-3)"></path><path d="M33.098,14.223c-0.215,-0.004 -0.367,0.023 -0.528,0.059c0,0.01 0,0.019 0,0.03c0.01,0 0.019,0 0.03,0c0.103,0.21 0.283,0.347 0.41,0.528c0.098,0.205 0.195,0.41 0.293,0.615c0.01,-0.01 0.019,-0.019 0.029,-0.029c0.181,-0.128 0.265,-0.332 0.264,-0.645c-0.073,-0.077 -0.084,-0.173 -0.147,-0.264c-0.084,-0.123 -0.246,-0.192 -0.351,-0.294z" fill="#00796b"></path></g></g><g fill="#000000" fill-rule="nonzero" stroke="none" stroke-width="1" stroke-linecap="butt" stroke-linejoin="miter" stroke-miterlimit="10" stroke-dasharray="" stroke-dashoffset="0" font-family="none" font-weight="none" font-size="none" text-anchor="none" style="mix-blend-mode: normal"><g><path d="M111.03333,109.73667h1.25v6.19h-0.72c-3.40667,0.05333 -6.14667,0.94 -8.22,2.66c-2.07333,1.72 -3.32,4.10667 -3.74,7.16v0c2.01333,-2.04667 4.55667,-3.07 7.63,-3.07v0c3.3,0 5.92333,1.18 7.87,3.54c1.94,2.36 2.91,5.46667 2.91,9.32v0c0,2.46667 -0.53333,4.7 -1.6,6.7c-1.06667,1.99333 -2.57667,3.54667 -4.53,4.66c-1.95333,1.10667 -4.16333,1.66 -6.63,1.66v0c-3.99333,0 -7.21667,-1.38667 -9.67,-4.16c-2.46,-2.78 -3.69,-6.48667 -3.69,-11.12v0v-2.71c0,-4.11333 0.77667,-7.74667 2.33,-10.9c1.56,-3.15333 3.79333,-5.59333 6.7,-7.32c2.90667,-1.72667 6.27667,-2.59667 10.11,-2.61zM104.94333,128.71667v0c-1.21333,0 -2.31667,0.31667 -3.31,0.95c-0.98667,0.63333 -1.71333,1.47 -2.18,2.51v0v2.3c0,2.51333 0.49333,4.47667 1.48,5.89c0.98667,1.42 2.37667,2.13 4.17,2.13v0c1.61333,0 2.92,-0.64 3.92,-1.92c0.99333,-1.27333 1.49,-2.92667 1.49,-4.96v0c0,-2.06667 -0.50333,-3.73333 -1.51,-5c-1.00667,-1.26667 -2.36,-1.9 -4.06,-1.9zM129.58333,130.87667l-5.99,-1.48l2.18,-19.27h21.25v6.27h-15.07l-0.94,8.15c1.78667,-0.95333 3.68667,-1.43 5.7,-1.43v0c3.61333,0 6.44333,1.12 8.49,3.36c2.04667,2.24 3.07,5.37333 3.07,9.4v0c0,2.44667 -0.51667,4.64 -1.55,6.58c-1.02667,1.93333 -2.50667,3.43333 -4.44,4.5c-1.92667,1.06667 -4.2,1.6 -6.82,1.6v0c-2.29333,0 -4.42,-0.46333 -6.38,-1.39c-1.96,-0.92667 -3.51,-2.23333 -4.65,-3.92c-1.13333,-1.68 -1.73667,-3.59667 -1.81,-5.75v0h7.45c0.16,1.58 0.71,2.80667 1.65,3.68c0.94667,0.88 2.18667,1.32 3.72,1.32v0c1.7,0 3.01,-0.61333 3.93,-1.84c0.92,-1.22667 1.38,-2.95667 1.38,-5.19v0c0,-2.15333 -0.53,-3.80333 -1.59,-4.95c-1.06,-1.14667 -2.56333,-1.72 -4.51,-1.72v0c-1.78667,0 -3.23333,0.46667 -4.34,1.4v0zM152.96333,119.26667v-1.85c0,-2.32667 0.75667,-4.21667 2.27,-5.67c1.50667,-1.44667 3.48667,-2.17 5.94,-2.17v0c2.48,0 4.47333,0.71667 5.98,2.15c1.51333,1.43333 2.27,3.37333 2.27,5.82v0v1.87c0,2.34667 -0.75667,4.23 -2.27,5.65c-1.50667,1.42667 -3.48333,2.14 -5.93,2.14v0c-2.46667,0 -4.46,-0.71667 -5.98,-2.15c-1.52,-1.43333 -2.28,-3.36333 -2.28,-5.79zM157.96333,117.51667v1.9c0,1.04667 0.3,1.88667 0.9,2.52c0.6,0.63333 1.38667,0.95 2.36,0.95c0.97333,0 1.74333,-0.32333 2.31,-0.97c0.57333,-0.64 0.86,-1.49667 0.86,-2.57v0v-1.93c0,-1.04 -0.28667,-1.88333 -0.86,-2.53c-0.56667,-0.64 -1.35333,-0.96 -2.36,-0.96v0c-0.96,0 -1.73333,0.31667 -2.32,0.95c-0.59333,0.63333 -0.89,1.51333 -0.89,2.64zM171.09333,140.66667v-1.92c0,-2.34667 0.76333,-4.23667 2.29,-5.67c1.52667,-1.43333 3.50667,-2.15 5.94,-2.15v0c2.46,0 4.45,0.71 5.97,2.13c1.52,1.41333 2.28,3.36 2.28,5.84v0v1.88c0,2.32667 -0.74667,4.20667 -2.24,5.64c-1.49333,1.42667 -3.48,2.14 -5.96,2.14v0c-2.5,0 -4.50667,-0.72 -6.02,-2.16c-1.50667,-1.44 -2.26,-3.35 -2.26,-5.73zM176.09333,138.81667v1.96c0,0.95333 0.31,1.77 0.93,2.45c0.62667,0.67333 1.41,1.01 2.35,1.01v0c2.12,0 3.18,-1.17 3.18,-3.51v0v-1.98c0,-1.04667 -0.29667,-1.88667 -0.89,-2.52c-0.59333,-0.63333 -1.37333,-0.95 -2.34,-0.95c-0.97333,0 -1.75667,0.31667 -2.35,0.95c-0.58667,0.63333 -0.88,1.49667 -0.88,2.59zM181.22333,115.56667l-18.52,29.63l-3.67,-1.97l18.52,-29.64z"></path></g></g></svg>