<svg xmlns="http://www.w3.org/2000/svg" xmlns:xlink="http://www.w3.org/1999/xlink" viewBox="0,0,255.99538,255.99538" width="50px" height="50px"><g transform="translate(15.35972,15.35972) scale(0.88,0.88)"><g fill="#f9ff00" fill-rule="nonzero" stroke="none" stroke-width="1" stroke-linecap="butt" stroke-linejoin="miter" stroke-miterlimit="10" stroke-dasharray="" stroke-dashoffset="0" font-family="none" font-weight="none" font-size="none" text-anchor="none" style="mix-blend-mode: normal"><g transform="translate(0.00008,23.552) scale(5.12,5.12)"><path d="M45.274,2.325c-0.19,-0.207 -0.457,-0.325 -0.738,-0.325h-39.072c-0.281,0 -0.548,0.118 -0.738,0.325c-0.19,0.207 -0.283,0.485 -0.258,0.764l3.52,39.427c0.037,0.412 0.324,0.759 0.722,0.873l16.01,4.573c0.089,0.025 0.182,0.038 0.274,0.038c0.092,0 0.185,-0.013 0.274,-0.038l16.024,-4.573c0.398,-0.114 0.685,-0.461 0.722,-0.873l3.518,-39.427c0.025,-0.279 -0.069,-0.557 -0.258,-0.764zM12,29.004l7,1.942v-19.946h4v26l-11,-3.051zM38.054,22l-1.054,12.25l-10,2.75v-4.601l6.75,-1.855l0.25,-3.75l-7,1.206v-17h12l-0.345,4h-7.655v8z"></path></g></g><g fill="#ffffff" fill-rule="nonzero" stroke="none" stroke-width="1" stroke-linecap="butt" stroke-linejoin="miter" stroke-miterlimit="10" stroke-dasharray="" stroke-dashoffset="0" font-family="none" font-weight="none" font-size="none" text-anchor="none" style="mix-blend-mode: normal"><g><path d="M105.242,-8.969v4.05l-14.08,32.35h-7.62l14.1,-30.55h-18.1v-5.85zM134.362,5.681v6.7c0,5.03333 -1.04,8.88333 -3.12,11.55c-2.08667,2.66667 -5.13667,4 -9.15,4v0c-3.96667,0 -7,-1.30667 -9.1,-3.92c-2.10667,-2.62 -3.18333,-6.37 -3.23,-11.25v0v-6.7c0,-5.08667 1.05333,-8.94667 3.16,-11.58c2.11333,-2.63333 5.15,-3.95 9.11,-3.95c3.97333,0 7.01,1.30333 9.11,3.91c2.1,2.61333 3.17333,6.36 3.22,11.24zM127.142,13.681v-8.65c0,-3.01333 -0.41333,-5.21 -1.24,-6.59c-0.82667,-1.37333 -2.11667,-2.06 -3.87,-2.06v0c-1.69333,0 -2.94667,0.65333 -3.76,1.96c-0.80667,1.31333 -1.23333,3.36 -1.28,6.14v0v8.85c0,2.96667 0.40333,5.17 1.21,6.61c0.80667,1.44667 2.10333,2.17 3.89,2.17v0c1.76667,0 3.04,-0.69333 3.82,-2.08c0.78667,-1.38 1.19667,-3.49667 1.23,-6.35zM139.142,-0.189v-1.78c0,-2.23333 0.72333,-4.04667 2.17,-5.44c1.44667,-1.39333 3.34667,-2.09 5.7,-2.09v0c2.38667,0 4.30333,0.69 5.75,2.07c1.44667,1.37333 2.17,3.23667 2.17,5.59v0v1.8c0,2.24667 -0.72333,4.05333 -2.17,5.42c-1.44667,1.36667 -3.34667,2.05 -5.7,2.05v0c-2.36667,0 -4.28,-0.68667 -5.74,-2.06c-1.45333,-1.37333 -2.18,-3.22667 -2.18,-5.56zM143.932,-1.869v1.83c0,1 0.29,1.80333 0.87,2.41c0.57333,0.60667 1.32667,0.91 2.26,0.91c0.93333,0 1.67667,-0.30667 2.23,-0.92c0.54667,-0.62 0.82,-1.44667 0.82,-2.48v0v-1.85c0,-1 -0.27333,-1.80667 -0.82,-2.42c-0.55333,-0.62 -1.31333,-0.93 -2.28,-0.93v0c-0.91333,0 -1.65333,0.30333 -2.22,0.91c-0.57333,0.61333 -0.86,1.46 -0.86,2.54zM156.542,20.361v-1.85c0,-2.25333 0.73,-4.06667 2.19,-5.44c1.46667,-1.37333 3.36667,-2.06 5.7,-2.06v0c2.36667,0 4.28,0.67667 5.74,2.03c1.46,1.36 2.19,3.23333 2.19,5.62v0v1.8c0,2.23333 -0.71667,4.03667 -2.15,5.41c-1.43333,1.37333 -3.34333,2.06 -5.73,2.06v0c-2.39333,0 -4.31667,-0.69 -5.77,-2.07c-1.44667,-1.38667 -2.17,-3.22 -2.17,-5.5zM161.342,18.581v1.88c0,0.91333 0.29667,1.69667 0.89,2.35c0.60667,0.64667 1.35667,0.97 2.25,0.97v0c2.04,0 3.06,-1.12333 3.06,-3.37v0v-1.9c0,-1 -0.28667,-1.80667 -0.86,-2.42c-0.56,-0.60667 -1.31,-0.91 -2.25,-0.91c-0.92667,0 -1.67667,0.30333 -2.25,0.91c-0.56,0.61333 -0.84,1.44333 -0.84,2.49zM166.262,-3.739l-17.78,28.45l-3.52,-1.9l17.77,-28.45z"></path></g></g></g></svg>