<svg xmlns="http://www.w3.org/2000/svg" xmlns:xlink="http://www.w3.org/1999/xlink" viewBox="0,0,255.99538,255.99538" width="48px" height="48px"><g transform=""><g fill="none" fill-rule="nonzero" stroke="none" stroke-width="1" stroke-linecap="butt" stroke-linejoin="miter" stroke-miterlimit="10" stroke-dasharray="" stroke-dashoffset="0" font-family="none" font-weight="none" font-size="none" text-anchor="none" style="mix-blend-mode: normal"><g transform="translate(-2.13333,18.13333) scale(5.33333,5.33333)"><path d="M42,17.3c0,20.5 -18,26.7 -18,26.7c0,0 -18,-6.2 -18,-26.7c0,-2.5 0.2,-4.6 0.4,-6.3c0.3,-2.5 2,-4.5 4.4,-5.1c3.1,-0.9 8,-1.9 13.2,-1.9c5.2,0 10.1,1 13.3,1.9c2.4,0.6 4.1,2.7 4.4,5.1c0.1,1.7 0.3,3.9 0.3,6.3z" fill="#5d4037"></path><path d="M24,7c4.9,0 9.5,1 12.5,1.8c1.2,0.3 2,1.3 2.2,2.6c0.2,1.9 0.3,3.9 0.3,5.9c0,15.6 -11.5,21.9 -15,23.4c-3.5,-1.6 -15,-7.9 -15,-23.4c0,-2 0.1,-4 0.3,-5.9c0.1,-1.3 1,-2.3 2.2,-2.6c3,-0.8 7.6,-1.8 12.5,-1.8M24,4c-5.2,0 -10.1,1 -13.3,1.9c-2.3,0.6 -4.1,2.7 -4.3,5.1c-0.2,1.7 -0.4,3.9 -0.4,6.3c0,20.5 18,26.7 18,26.7c0,0 18,-6.2 18,-26.7c0,-2.5 -0.2,-4.6 -0.4,-6.3c-0.3,-2.5 -2,-4.5 -4.4,-5.1c-3.1,-0.9 -8,-1.9 -13.2,-1.9z" fill="#4caf50"></path><path d="M23,28h2v8h-2z" fill="#dcedc8"></path><path d="M24,10c0,0 -6,5 -6,13c0,5.2 3.3,8.5 5,10l1,-3l1,3c1.7,-1.5 5,-4.8 5,-10c0,-8 -6,-13 -6,-13z" fill="#4caf50"></path><path d="M24,10c0,0 -6,5 -6,13c0,5.2 3.3,8.5 5,10l1,-3z" fill="#81c784"></path></g></g><g fill="#ffffff" fill-rule="nonzero" stroke="none" stroke-width="1" stroke-linecap="butt" stroke-linejoin="miter" stroke-miterlimit="10" stroke-dasharray="" stroke-dashoffset="0" font-family="none" font-weight="none" font-size="none" text-anchor="none" style="mix-blend-mode: normal"><g><path d="M98.975,1.795h1.13v5.58h-0.66c-3.06,0.04667 -5.52667,0.84333 -7.4,2.39c-1.86667,1.54667 -2.98667,3.69667 -3.36,6.45v0c1.81333,-1.84667 4.10333,-2.77 6.87,-2.77v0c2.96667,0 5.32667,1.06333 7.08,3.19c1.74667,2.12667 2.62,4.92333 2.62,8.39v0c0,2.22 -0.48,4.22667 -1.44,6.02c-0.96,1.8 -2.32,3.2 -4.08,4.2c-1.75333,1 -3.74,1.5 -5.96,1.5v0c-3.59333,0 -6.49667,-1.25 -8.71,-3.75c-2.21333,-2.5 -3.32,-5.83667 -3.32,-10.01v0v-2.44c0,-3.7 0.7,-6.97 2.1,-9.81c1.4,-2.83333 3.40667,-5.02667 6.02,-6.58c2.62,-1.55333 5.65667,-2.34 9.11,-2.36zM93.495,18.885v0c-1.09333,0 -2.08667,0.28333 -2.98,0.85c-0.89333,0.57333 -1.55,1.33 -1.97,2.27v0v2.06c0,2.26667 0.44667,4.03667 1.34,5.31c0.88667,1.27333 2.13667,1.91 3.75,1.91v0c1.45333,0 2.62667,-0.57333 3.52,-1.72c0.9,-1.15333 1.35,-2.64333 1.35,-4.47v0c0,-1.86 -0.45333,-3.36 -1.36,-4.5c-0.90667,-1.14 -2.12333,-1.71 -3.65,-1.71zM115.665,20.825l-5.39,-1.33l1.97,-17.34h19.12v5.64h-13.57l-0.84,7.34c1.60667,-0.86 3.31667,-1.29 5.13,-1.29v0c3.24667,0 5.79333,1.00667 7.64,3.02c1.84667,2.02 2.77,4.84 2.77,8.46v0c0,2.20667 -0.46667,4.18 -1.4,5.92c-0.92667,1.74667 -2.25667,3.1 -3.99,4.06c-1.74,0.96 -3.79,1.44 -6.15,1.44v0c-2.06,0 -3.97333,-0.42 -5.74,-1.26c-1.76667,-0.83333 -3.16,-2.00667 -4.18,-3.52c-1.02667,-1.52 -1.57,-3.24667 -1.63,-5.18v0h6.7c0.14,1.42 0.63667,2.52333 1.49,3.31c0.85333,0.79333 1.96667,1.19 3.34,1.19v0c1.53333,0 2.71333,-0.55 3.54,-1.65c0.82667,-1.10667 1.24,-2.66667 1.24,-4.68v0c0,-1.94 -0.47667,-3.42333 -1.43,-4.45c-0.95333,-1.03333 -2.30333,-1.55 -4.05,-1.55v0c-1.61333,0 -2.92,0.42333 -3.92,1.27v0zM136.705,10.375v-1.66c0,-2.09333 0.68,-3.79333 2.04,-5.1c1.36,-1.30667 3.14333,-1.96 5.35,-1.96v0c2.23333,0 4.03,0.64667 5.39,1.94c1.36,1.28667 2.04,3.03 2.04,5.23v0v1.69c0,2.11333 -0.68,3.81 -2.04,5.09c-1.36,1.28 -3.14333,1.92 -5.35,1.92v0c-2.21333,0 -4.00333,-0.64333 -5.37,-1.93c-1.37333,-1.29333 -2.06,-3.03333 -2.06,-5.22zM141.205,8.805v1.71c0,0.94 0.27,1.69333 0.81,2.26c0.54,0.57333 1.24667,0.86 2.12,0.86c0.88,0 1.57667,-0.29 2.09,-0.87c0.51333,-0.57333 0.77,-1.34667 0.77,-2.32v0v-1.73c0,-0.94 -0.25667,-1.7 -0.77,-2.28c-0.51333,-0.57333 -1.22333,-0.86 -2.13,-0.86v0c-0.86,0 -1.55667,0.28333 -2.09,0.85c-0.53333,0.57333 -0.8,1.36667 -0.8,2.38zM153.025,29.645v-1.74c0,-2.10667 0.68667,-3.80333 2.06,-5.09c1.37333,-1.29333 3.15333,-1.94 5.34,-1.94v0c2.22,0 4.01333,0.63667 5.38,1.91c1.36667,1.27333 2.05,3.02667 2.05,5.26v0v1.69c0,2.09333 -0.67,3.78667 -2.01,5.08c-1.34667,1.28667 -3.13667,1.93 -5.37,1.93v0c-2.24667,0 -4.05,-0.65 -5.41,-1.95c-1.36,-1.29333 -2.04,-3.01 -2.04,-5.15zM157.525,27.975v1.76c0,0.86 0.28,1.59333 0.84,2.2c0.56,0.61333 1.26333,0.92 2.11,0.92v0c1.90667,0 2.86,-1.05667 2.86,-3.17v0v-1.78c0,-0.93333 -0.26667,-1.68667 -0.8,-2.26c-0.52667,-0.56667 -1.23,-0.85 -2.11,-0.85c-0.87333,0 -1.57667,0.28333 -2.11,0.85c-0.52667,0.57333 -0.79,1.35 -0.79,2.33zM162.135,7.045l-16.66,26.68l-3.3,-1.79l16.66,-26.67z"></path></g></g></g></svg>