<svg xmlns="http://www.w3.org/2000/svg" xmlns:xlink="http://www.w3.org/1999/xlink" viewBox="0,0,255.99538,255.99538" width="30px" height="30px"><g fill="#000000" fill-rule="nonzero" stroke="none" stroke-width="1" stroke-linecap="butt" stroke-linejoin="miter" stroke-miterlimit="10" stroke-dasharray="" stroke-dashoffset="0" font-family="none" font-weight="none" font-size="none" text-anchor="none" style="mix-blend-mode: normal"><g transform="translate(0.85333,29.73867) scale(8.53333,8.53333)"><path d="M15,3c-6.627,0 -12,5.373 -12,12c0,5.623 3.872,10.328 9.092,11.63c-0.056,-0.162 -0.092,-0.35 -0.092,-0.583v-2.051c-0.487,0 -1.303,0 -1.508,0c-0.821,0 -1.551,-0.353 -1.905,-1.009c-0.393,-0.729 -0.461,-1.844 -1.435,-2.526c-0.289,-0.227 -0.069,-0.486 0.264,-0.451c0.615,0.174 1.125,0.596 1.605,1.222c0.478,0.627 0.703,0.769 1.596,0.769c0.433,0 1.081,-0.025 1.691,-0.121c0.328,-0.833 0.895,-1.6 1.588,-1.962c-3.996,-0.411 -5.903,-2.399 -5.903,-5.098c0,-1.162 0.495,-2.286 1.336,-3.233c-0.276,-0.94 -0.623,-2.857 0.106,-3.587c1.798,0 2.885,1.166 3.146,1.481c0.896,-0.307 1.88,-0.481 2.914,-0.481c1.036,0 2.024,0.174 2.922,0.483c0.258,-0.313 1.346,-1.483 3.148,-1.483c0.732,0.731 0.381,2.656 0.102,3.594c0.836,0.945 1.328,2.066 1.328,3.226c0,2.697 -1.904,4.684 -5.894,5.097c1.098,0.573 1.899,2.183 1.899,3.396v2.734c0,0.104 -0.023,0.179 -0.035,0.268c4.676,-1.639 8.035,-6.079 8.035,-11.315c0,-6.627 -5.373,-12 -12,-12z"></path></g></g><g fill="#ffffff" fill-rule="nonzero" stroke="none" stroke-width="1" stroke-linecap="butt" stroke-linejoin="miter" stroke-miterlimit="10" stroke-dasharray="" stroke-dashoffset="0" font-family="none" font-weight="none" font-size="none" text-anchor="none" style="mix-blend-mode: normal"><g><path d="M99.13,25.85167v0c-1.88667,1.85333 -4.08667,2.78 -6.6,2.78v0c-3.22,0 -5.79667,-1.10667 -7.73,-3.32c-1.93333,-2.20667 -2.9,-5.18333 -2.9,-8.93v0c0,-2.38667 0.52,-4.57667 1.56,-6.57c1.04667,-1.98667 2.50333,-3.53667 4.37,-4.65c1.86667,-1.10667 3.96667,-1.66 6.3,-1.66v0c2.4,0 4.53333,0.6 6.4,1.8c1.86667,1.2 3.31667,2.92667 4.35,5.18c1.03333,2.24667 1.55667,4.82 1.57,7.72v0v2.68c0,6.06667 -1.50667,10.83333 -4.52,14.3c-3.02,3.46667 -7.29667,5.31667 -12.83,5.55v0l-1.77,0.02v-6.02l1.6,-0.03c6.28,-0.28 9.68,-3.23 10.2,-8.85zM94.3,23.10167v0c1.16667,0 2.17,-0.3 3.01,-0.9c0.84,-0.6 1.48,-1.32333 1.92,-2.17v0v-2.98c0,-2.44667 -0.47,-4.34667 -1.41,-5.7c-0.92667,-1.34667 -2.17333,-2.02 -3.74,-2.02v0c-1.45333,0 -2.64667,0.66 -3.58,1.98c-0.93333,1.32667 -1.4,2.99 -1.4,4.99v0c0,1.98667 0.45333,3.61667 1.36,4.89c0.91333,1.27333 2.19333,1.91 3.84,1.91zM136.1,18.65167v6.7c0,5.03333 -1.04,8.88333 -3.12,11.55c-2.08667,2.66667 -5.13667,4 -9.15,4v0c-3.96667,0 -7,-1.30667 -9.1,-3.92c-2.10667,-2.62 -3.18333,-6.37 -3.23,-11.25v0v-6.7c0,-5.08667 1.05333,-8.94667 3.16,-11.58c2.11333,-2.63333 5.15,-3.95 9.11,-3.95c3.97333,0 7.01,1.30333 9.11,3.91c2.1,2.61333 3.17333,6.36 3.22,11.24zM128.88,26.65167v-8.65c0,-3.01333 -0.41333,-5.21 -1.24,-6.59c-0.82667,-1.37333 -2.11667,-2.06 -3.87,-2.06v0c-1.69333,0 -2.94667,0.65333 -3.76,1.96c-0.80667,1.31333 -1.23333,3.36 -1.28,6.14v0v8.85c0,2.96667 0.40333,5.17 1.21,6.61c0.80667,1.44667 2.10333,2.17 3.89,2.17v0c1.76667,0 3.04,-0.69333 3.82,-2.08c0.78667,-1.38 1.19667,-3.49667 1.23,-6.35zM140.88,12.78167v-1.78c0,-2.23333 0.72333,-4.04667 2.17,-5.44c1.44667,-1.39333 3.34667,-2.09 5.7,-2.09v0c2.38667,0 4.30333,0.69 5.75,2.07c1.44667,1.37333 2.17,3.23667 2.17,5.59v0v1.8c0,2.24667 -0.72333,4.05333 -2.17,5.42c-1.44667,1.36667 -3.34667,2.05 -5.7,2.05v0c-2.36667,0 -4.28,-0.68667 -5.74,-2.06c-1.45333,-1.37333 -2.18,-3.22667 -2.18,-5.56zM145.67,11.10167v1.83c0,1 0.29,1.80333 0.87,2.41c0.57333,0.60667 1.32667,0.91 2.26,0.91c0.93333,0 1.67667,-0.30667 2.23,-0.92c0.54667,-0.62 0.82,-1.44667 0.82,-2.48v0v-1.85c0,-1 -0.27333,-1.80667 -0.82,-2.42c-0.55333,-0.62 -1.31333,-0.93 -2.28,-0.93v0c-0.91333,0 -1.65333,0.30333 -2.22,0.91c-0.57333,0.61333 -0.86,1.46 -0.86,2.54zM158.28,33.33167v-1.85c0,-2.25333 0.73,-4.06667 2.19,-5.44c1.46667,-1.37333 3.36667,-2.06 5.7,-2.06v0c2.36667,0 4.28,0.67667 5.74,2.03c1.46,1.36 2.19,3.23333 2.19,5.62v0v1.8c0,2.23333 -0.71667,4.03667 -2.15,5.41c-1.43333,1.37333 -3.34333,2.06 -5.73,2.06v0c-2.39333,0 -4.31667,-0.69 -5.77,-2.07c-1.44667,-1.38667 -2.17,-3.22 -2.17,-5.5zM163.08,31.55167v1.88c0,0.91333 0.29667,1.69667 0.89,2.35c0.60667,0.64667 1.35667,0.97 2.25,0.97v0c2.04,0 3.06,-1.12333 3.06,-3.37v0v-1.9c0,-1 -0.28667,-1.80667 -0.86,-2.42c-0.56,-0.60667 -1.31,-0.91 -2.25,-0.91c-0.92667,0 -1.67667,0.30333 -2.25,0.91c-0.56,0.61333 -0.84,1.44333 -0.84,2.49zM168,9.23167l-17.78,28.45l-3.52,-1.9l17.77,-28.45z"></path></g></g></svg>