<svg xmlns="http://www.w3.org/2000/svg" xmlns:xlink="http://www.w3.org/1999/xlink" viewBox="0,0,255.99538,255.99538" width="64px" height="64px"><defs><linearGradient x1="15.25" y1="32.704" x2="15.25" y2="48.615" gradientUnits="userSpaceOnUse" id="color-1"><stop offset="0" stop-color="#8ab4ff"></stop><stop offset="0.699" stop-color="#e492ff"></stop></linearGradient><linearGradient x1="15.25" y1="30.671" x2="15.25" y2="43.89" gradientUnits="userSpaceOnUse" id="color-2"><stop offset="0" stop-color="#8ab4ff"></stop><stop offset="0.699" stop-color="#e492ff"></stop></linearGradient><linearGradient x1="31.87" y1="10.7" x2="31.87" y2="35.152" gradientUnits="userSpaceOnUse" id="color-3"><stop offset="0" stop-color="#8ab4ff"></stop><stop offset="1" stop-color="#e492ff"></stop></linearGradient><linearGradient x1="32" y1="8.058" x2="32" y2="57.784" gradientUnits="userSpaceOnUse" id="color-4"><stop offset="0" stop-color="#1a6dff"></stop><stop offset="1" stop-color="#c822ff"></stop></linearGradient></defs><g transform="translate(12.79977,12.79977) scale(0.9,0.9)"><g fill="none" fill-rule="nonzero" stroke="none" stroke-width="1" stroke-linecap="butt" stroke-linejoin="miter" stroke-miterlimit="10" stroke-dasharray="" stroke-dashoffset="0" font-family="none" font-weight="none" font-size="none" text-anchor="none" style="mix-blend-mode: normal"><g transform="translate(0.8,30) scale(4,4)"><path d="M19.09,39.37c0,0.01 0.01,0.01 0.01,0.02l-7.7,4.5z" fill="url(#color-1)"></path><path d="M19.09,39.37c0,0.01 0.01,0.01 0.01,0.02l-7.7,4.5z" fill="url(#color-2)"></path><path d="M32,8.21l-20.6,11.9v23.78l7.69,-4.52c-1.18,-2.17 -1.85,-4.65 -1.85,-7.3c0,-2.88 0.8,-5.56 2.18,-7.87c2.68,-4.46 7.57,-7.46 13.15,-7.46c5.27,0 10.11,2.67 12.94,7.12l-0.39,0.24l-6.57,3.87c-1.35,-1.99 -3.57,-3.16 -5.98,-3.16c-2.62,0 -4.91,1.39 -6.19,3.47c-0.68,1.11 -1.07,2.4 -1.07,3.79c0,1.16 0.27,2.25 0.75,3.22l6.13,-3.6h0.01l0.04,0.02l20.1,-11.75z" fill="url(#color-3)"></path><path d="M32.24,31.71l-6.17,3.6c1.19,2.38 3.66,4.02 6.5,4.02c2.382,0 4.553,-1.156 5.911,-3.063l7.076,3.931c-2.797,4.468 -7.66,7.202 -12.987,7.202c-5.8,0 -10.87,-3.24 -13.47,-8.01l-7.7,4.5l20.6,11.9l20.6,-11.9v-0.22v-23.56l-0.26,-0.15zM51,31h-2v2h2v2h-2v2h-2v-2h-2v2h-2v-2h-2v-2h2v-2h-2v-2h2v-2h2v2h2v-2h2v2h2zM45,31h2v2h-2zM55.1,16.93l-21.6,-12.47c-0.93,-0.53 -2.07,-0.53 -3,0l-21.6,12.47c-0.92,0.54 -1.5,1.53 -1.5,2.6v24.94c0,1.07 0.58,2.06 1.5,2.6l21.6,12.47c0.93,0.53 2.07,0.53 3,0l21.6,-12.47c0.92,-0.54 1.5,-1.53 1.5,-2.6v-24.94c0,-1.07 -0.58,-2.06 -1.5,-2.6zM54.6,44.47c0,0.36 -0.19,0.69 -0.5,0.87l-21.6,12.47c-0.31,0.17 -0.69,0.17 -1,0l-21.6,-12.47c-0.31,-0.18 -0.5,-0.51 -0.5,-0.87v-24.94c0,-0.36 0.19,-0.69 0.5,-0.87l21.6,-12.47c0.31,-0.17 0.69,-0.17 1,0l21.6,12.47c0.31,0.18 0.5,0.51 0.5,0.87z" fill="url(#color-4)"></path></g></g><g fill="#ffffff" fill-rule="nonzero" stroke="none" stroke-width="1" stroke-linecap="butt" stroke-linejoin="miter" stroke-miterlimit="10" stroke-dasharray="" stroke-dashoffset="0" font-family="none" font-weight="none" font-size="none" text-anchor="none" style="mix-blend-mode: normal"><g><path d="M105.49,0.955v21.28h3.87v5.46h-3.87v7.38h-6.77v-7.38h-14l-0.3,-4.27l14.23,-22.47zM98.27,10.955l-7.1,11.28h7.55v-12.05zM135.96,14.685v6.28c0,4.72 -0.97667,8.33 -2.93,10.83c-1.95333,2.5 -4.81333,3.75 -8.58,3.75v0c-3.72,0 -6.56333,-1.22667 -8.53,-3.68c-1.96667,-2.45333 -2.97333,-5.97 -3.02,-10.55v0v-6.28c0,-4.76667 0.98667,-8.38333 2.96,-10.85c1.98,-2.46667 4.82667,-3.7 8.54,-3.7c3.72,0 6.56333,1.22 8.53,3.66c1.97333,2.44667 2.98333,5.96 3.03,10.54zM129.18,22.185v-8.11c0,-2.82667 -0.38667,-4.88667 -1.16,-6.18c-0.77333,-1.28667 -1.98,-1.93 -3.62,-1.93v0c-1.59333,0 -2.76667,0.61333 -3.52,1.84c-0.76,1.22667 -1.16333,3.14333 -1.21,5.75v0v8.3c0,2.78 0.38,4.84667 1.14,6.2c0.75333,1.35333 1.96667,2.03 3.64,2.03v0c1.65333,0 2.85,-0.65 3.59,-1.95c0.73333,-1.29333 1.11333,-3.27667 1.14,-5.95zM140.43,9.175v-1.66c0,-2.09333 0.68,-3.79333 2.04,-5.1c1.36,-1.30667 3.14333,-1.96 5.35,-1.96v0c2.23333,0 4.03,0.64667 5.39,1.94c1.36,1.28667 2.04,3.03 2.04,5.23v0v1.69c0,2.11333 -0.68,3.81 -2.04,5.09c-1.36,1.28 -3.14333,1.92 -5.35,1.92v0c-2.21333,0 -4.00333,-0.64333 -5.37,-1.93c-1.37333,-1.29333 -2.06,-3.03333 -2.06,-5.22zM144.93,7.605v1.71c0,0.94 0.27,1.69333 0.81,2.26c0.54,0.57333 1.24667,0.86 2.12,0.86c0.88,0 1.57667,-0.29 2.09,-0.87c0.51333,-0.57333 0.77,-1.34667 0.77,-2.32v0v-1.73c0,-0.94 -0.25667,-1.7 -0.77,-2.28c-0.51333,-0.57333 -1.22333,-0.86 -2.13,-0.86v0c-0.86,0 -1.55667,0.28333 -2.09,0.85c-0.53333,0.57333 -0.8,1.36667 -0.8,2.38zM156.75,28.445v-1.74c0,-2.10667 0.68667,-3.80333 2.06,-5.09c1.37333,-1.29333 3.15333,-1.94 5.34,-1.94v0c2.22,0 4.01333,0.63667 5.38,1.91c1.36667,1.27333 2.05,3.02667 2.05,5.26v0v1.69c0,2.09333 -0.67,3.78667 -2.01,5.08c-1.34667,1.28667 -3.13667,1.93 -5.37,1.93v0c-2.24667,0 -4.05,-0.65 -5.41,-1.95c-1.36,-1.29333 -2.04,-3.01 -2.04,-5.15zM161.25,26.775v1.76c0,0.86 0.28,1.59333 0.84,2.2c0.56,0.61333 1.26333,0.92 2.11,0.92v0c1.90667,0 2.86,-1.05667 2.86,-3.17v0v-1.78c0,-0.93333 -0.26667,-1.68667 -0.8,-2.26c-0.52667,-0.56667 -1.23,-0.85 -2.11,-0.85c-0.87333,0 -1.57667,0.28333 -2.11,0.85c-0.52667,0.57333 -0.79,1.35 -0.79,2.33zM165.86,5.845l-16.66,26.68l-3.3,-1.79l16.66,-26.67z"></path></g></g></g></svg>