<svg xmlns="http://www.w3.org/2000/svg" xmlns:xlink="http://www.w3.org/1999/xlink" viewBox="0,0,255.99538,255.99538" width="48px" height="48px"><g transform="translate(5.11991,5.11991) scale(0.96,0.96)"><g fill="none" fill-rule="nonzero" stroke="none" stroke-width="1" stroke-linecap="butt" stroke-linejoin="miter" stroke-miterlimit="10" stroke-dasharray="" stroke-dashoffset="0" font-family="none" font-weight="none" font-size="none" text-anchor="none" style="mix-blend-mode: normal"><g transform="translate(-1.6,22.93628) scale(5.33333,5.33333)"><path d="M23.65,24.898c-0.998,-1.609 -1.722,-2.943 -2.725,-5.455c-1.696,-4.243 10.315,-8.077 5.445,-15.444c2.111,5.089 -7.577,8.235 -8.477,12.473c-0.823,3.898 5.752,8.426 5.757,8.426z" fill="#f44336"></path><path d="M23.878,17.27c-0.192,2.516 2.229,3.857 2.299,5.695c0.056,1.496 -1.447,2.743 -1.447,2.743c0,0 2.728,-0.536 3.579,-2.818c0.945,-2.534 -1.834,-4.269 -1.548,-6.298c0.267,-1.938 6.031,-5.543 6.031,-5.543c0,0 -8.481,0.562 -8.914,6.221z" fill="#f44336"></path><g fill="#1565c0"><path d="M32.084,25.055c1.754,-0.394 3.233,0.723 3.233,2.01c0,2.901 -4.021,5.643 -4.021,5.643c0,0 6.225,-0.742 6.225,-5.505c0,-3.15 -3.057,-3.937 -5.437,-2.148zM29.129,27.395c0,0 1.941,-1.383 2.458,-1.902c-4.763,1.011 -15.638,1.147 -15.638,0.269c0,-0.809 3.507,-1.638 3.507,-1.638c0,0 -7.773,-0.112 -7.773,2.181c0,2.39 10.175,2.561 17.446,1.09z"></path><path d="M27.935,29.571c-4.509,1.499 -12.814,1.02 -10.354,-0.993c-1.198,0 -2.974,0.963 -2.974,1.889c0,1.857 8.982,3.291 15.63,0.572z"></path><path d="M18.686,32.739c-1.636,0 -2.695,1.054 -2.695,1.822c0,2.391 9.76,2.632 13.627,0.205l-2.458,-1.632c-2.889,1.27 -10.146,1.445 -8.474,-0.395z"></path><path d="M36.281,36.632c0,-0.936 -1.055,-1.377 -1.433,-1.588c2.228,5.373 -22.317,4.956 -22.317,1.784c0,-0.721 1.807,-1.427 3.477,-1.093l-1.42,-0.839c-3.328,-0.522 -5.588,0.941 -5.588,2.121c0,5.503 27.281,5.238 27.281,-0.385z"></path><path d="M39,38.604c-4.146,4.095 -14.659,5.587 -25.231,3.057c10.572,4.503 25.181,1.967 25.231,-3.057z"></path></g></g></g><g fill="#ffffff" fill-rule="nonzero" stroke="none" stroke-width="1" stroke-linecap="butt" stroke-linejoin="miter" stroke-miterlimit="10" stroke-dasharray="" stroke-dashoffset="0" font-family="none" font-weight="none" font-size="none" text-anchor="none" style="mix-blend-mode: normal"><g><path d="M104.42333,6.955v21.28h3.87v5.46h-3.87v7.38h-6.77v-7.38h-14l-0.3,-4.27l14.23,-22.47zM97.20333,16.955l-7.1,11.28h7.55v-12.05zM134.89333,20.685v6.28c0,4.72 -0.97667,8.33 -2.93,10.83c-1.95333,2.5 -4.81333,3.75 -8.58,3.75v0c-3.72,0 -6.56333,-1.22667 -8.53,-3.68c-1.96667,-2.45333 -2.97333,-5.97 -3.02,-10.55v0v-6.28c0,-4.76667 0.98667,-8.38333 2.96,-10.85c1.98,-2.46667 4.82667,-3.7 8.54,-3.7c3.72,0 6.56333,1.22 8.53,3.66c1.97333,2.44667 2.98333,5.96 3.03,10.54zM128.11333,28.185v-8.11c0,-2.82667 -0.38667,-4.88667 -1.16,-6.18c-0.77333,-1.28667 -1.98,-1.93 -3.62,-1.93v0c-1.59333,0 -2.76667,0.61333 -3.52,1.84c-0.76,1.22667 -1.16333,3.14333 -1.21,5.75v0v8.3c0,2.78 0.38,4.84667 1.14,6.2c0.75333,1.35333 1.96667,2.03 3.64,2.03v0c1.65333,0 2.85,-0.65 3.59,-1.95c0.73333,-1.29333 1.11333,-3.27667 1.14,-5.95zM139.36333,15.175v-1.66c0,-2.09333 0.68,-3.79333 2.04,-5.1c1.36,-1.30667 3.14333,-1.96 5.35,-1.96v0c2.23333,0 4.03,0.64667 5.39,1.94c1.36,1.28667 2.04,3.03 2.04,5.23v0v1.69c0,2.11333 -0.68,3.81 -2.04,5.09c-1.36,1.28 -3.14333,1.92 -5.35,1.92v0c-2.21333,0 -4.00333,-0.64333 -5.37,-1.93c-1.37333,-1.29333 -2.06,-3.03333 -2.06,-5.22zM143.86333,13.605v1.71c0,0.94 0.27,1.69333 0.81,2.26c0.54,0.57333 1.24667,0.86 2.12,0.86c0.88,0 1.57667,-0.29 2.09,-0.87c0.51333,-0.57333 0.77,-1.34667 0.77,-2.32v0v-1.73c0,-0.94 -0.25667,-1.7 -0.77,-2.28c-0.51333,-0.57333 -1.22333,-0.86 -2.13,-0.86v0c-0.86,0 -1.55667,0.28333 -2.09,0.85c-0.53333,0.57333 -0.8,1.36667 -0.8,2.38zM155.68333,34.445v-1.74c0,-2.10667 0.68667,-3.80333 2.06,-5.09c1.37333,-1.29333 3.15333,-1.94 5.34,-1.94v0c2.22,0 4.01333,0.63667 5.38,1.91c1.36667,1.27333 2.05,3.02667 2.05,5.26v0v1.69c0,2.09333 -0.67,3.78667 -2.01,5.08c-1.34667,1.28667 -3.13667,1.93 -5.37,1.93v0c-2.24667,0 -4.05,-0.65 -5.41,-1.95c-1.36,-1.29333 -2.04,-3.01 -2.04,-5.15zM160.18333,32.775v1.76c0,0.86 0.28,1.59333 0.84,2.2c0.56,0.61333 1.26333,0.92 2.11,0.92v0c1.90667,0 2.86,-1.05667 2.86,-3.17v0v-1.78c0,-0.93333 -0.26667,-1.68667 -0.8,-2.26c-0.52667,-0.56667 -1.23,-0.85 -2.11,-0.85c-0.87333,0 -1.57667,0.28333 -2.11,0.85c-0.52667,0.57333 -0.79,1.35 -0.79,2.33zM164.79333,11.845l-16.66,26.68l-3.3,-1.79l16.66,-26.67z"></path></g></g></g></svg>