<svg xmlns="http://www.w3.org/2000/svg" xmlns:xlink="http://www.w3.org/1999/xlink" viewBox="0,0,255.99538,255.99538" width="48px" height="48px"><g transform="translate(19.19965,19.19965) scale(0.85,0.85)"><g fill="#7e57c2" fill-rule="nonzero" stroke="none" stroke-width="1" stroke-linecap="butt" stroke-linejoin="miter" stroke-miterlimit="10" stroke-dasharray="" stroke-dashoffset="0" font-family="none" font-weight="none" font-size="none" text-anchor="none" style="mix-blend-mode: normal"><g transform="translate(-1.6033,18.144) scale(5.33333,5.33333)"><path d="M23,4c-6.617,0 -12,7.27 -12,16.205c0,4.834 1.582,9.169 4.078,12.136c-0.048,0.213 -0.078,0.432 -0.078,0.659c0,1.657 1.343,3 3,3c1.657,0 3,-1.343 3,-3c0,-1.657 -1.343,-3 -3,-3c-0.315,0 -0.612,0.062 -0.897,0.152c-1.897,-2.421 -3.103,-5.977 -3.103,-9.947c0,-7.281 4.037,-13.205 9,-13.205c3.837,0 7.111,3.547 8.404,8.518c1.122,0.346 2.237,0.782 3.33,1.308c-1.155,-7.318 -5.975,-12.826 -11.734,-12.826z"></path><path d="M35.507,20.084c-3.947,-2.392 -8.374,-3.442 -12.182,-2.959c-0.55,-0.681 -1.382,-1.125 -2.325,-1.125c-1.657,0 -3,1.343 -3,3c0,1.657 1.343,3 3,3c1.272,0 2.353,-0.795 2.789,-1.912c3.118,-0.379 6.812,0.531 10.163,2.563c6.403,3.881 9.67,10.569 7.282,14.911c-0.827,1.504 -2.286,2.572 -4.218,3.09c-2.286,0.611 -5.007,0.394 -7.727,-0.528c-0.839,0.772 -1.749,1.498 -2.725,2.168c2.552,1.117 5.196,1.704 7.669,1.704c1.24,0 2.438,-0.147 3.559,-0.447c2.741,-0.733 4.841,-2.304 6.071,-4.542c3.153,-5.731 -0.596,-14.22 -8.356,-18.923z"></path><path d="M35,28.992c0,-1.652 -1.343,-2.992 -3,-2.992c-1.657,0 -3,1.34 -3,2.992c0,0.669 0.228,1.281 0.6,1.779c-1.279,2.802 -3.744,5.567 -7.062,7.578c-3.865,2.344 -8.185,3.202 -11.555,2.302c-1.932,-0.518 -3.391,-1.586 -4.218,-3.09c-1.702,-3.094 -0.521,-7.376 2.61,-10.988c-0.323,-1.144 -0.562,-2.34 -0.706,-3.575c-5.07,4.797 -7.109,11.323 -4.532,16.009c1.23,2.238 3.33,3.809 6.071,4.542c1.121,0.3 2.318,0.447 3.559,0.447c3.346,0 7.007,-1.068 10.326,-3.08c3.836,-2.325 6.683,-5.577 8.209,-8.962c1.513,-0.153 2.698,-1.413 2.698,-2.962z"></path></g></g><g fill="#ffffff" fill-rule="nonzero" stroke="none" stroke-width="1" stroke-linecap="butt" stroke-linejoin="miter" stroke-miterlimit="10" stroke-dasharray="" stroke-dashoffset="0" font-family="none" font-weight="none" font-size="none" text-anchor="none" style="mix-blend-mode: normal"><g><path d="M96.96833,-18.07h1.37v6.82h-0.8c-3.74,0.05333 -6.75333,1.02667 -9.04,2.92c-2.28,1.88667 -3.65,4.51333 -4.11,7.88v0c2.22,-2.25333 5.02,-3.38 8.4,-3.38v0c3.62667,0 6.51,1.29667 8.65,3.89c2.14,2.6 3.21,6.02 3.21,10.26v0c0,2.70667 -0.59,5.16 -1.77,7.36c-1.17333,2.19333 -2.83333,3.90333 -4.98,5.13c-2.14667,1.22 -4.57667,1.83 -7.29,1.83v0c-4.39333,0 -7.94,-1.52667 -10.64,-4.58c-2.70667,-3.06 -4.06,-7.14 -4.06,-12.24v0v-2.97c0,-4.52667 0.85667,-8.52333 2.57,-11.99c1.70667,-3.46667 4.16,-6.15 7.36,-8.05c3.2,-1.9 6.91,-2.86 11.13,-2.88zM90.26833,2.81v0c-1.34,0 -2.55333,0.35 -3.64,1.05c-1.08667,0.69333 -1.89,1.61333 -2.41,2.76v0v2.52c0,2.77333 0.54333,4.93667 1.63,6.49c1.09333,1.56 2.62333,2.34 4.59,2.34v0c1.77333,0 3.21,-0.70333 4.31,-2.11c1.1,-1.40667 1.65,-3.22667 1.65,-5.46v0c0,-2.27333 -0.55667,-4.10667 -1.67,-5.5c-1.10667,-1.39333 -2.59333,-2.09 -4.46,-2.09zM117.36833,5.19l-6.59,-1.63l2.4,-21.2h23.38v6.9h-16.59l-1.03,8.97c1.96667,-1.05333 4.05667,-1.58 6.27,-1.58v0c3.97333,0 7.08667,1.23333 9.34,3.7c2.25333,2.46 3.38,5.90667 3.38,10.34v0c0,2.69333 -0.56667,5.10333 -1.7,7.23c-1.14,2.13333 -2.77,3.78667 -4.89,4.96c-2.12,1.17333 -4.62,1.76 -7.5,1.76v0c-2.52,0 -4.86,-0.51 -7.02,-1.53c-2.16,-1.02667 -3.86333,-2.46333 -5.11,-4.31c-1.25333,-1.85333 -1.91667,-3.96333 -1.99,-6.33v0h8.19c0.17333,1.73333 0.78,3.08333 1.82,4.05c1.04,0.96667 2.4,1.45 4.08,1.45v0c1.87333,0 3.31667,-0.67333 4.33,-2.02c1.00667,-1.34667 1.51,-3.25333 1.51,-5.72v0c0,-2.36667 -0.58,-4.18 -1.74,-5.44c-1.16667,-1.26 -2.82,-1.89 -4.96,-1.89v0c-1.96667,0 -3.56,0.51333 -4.78,1.54v0zM143.08833,-7.59v-2.03c0,-2.56 0.83,-4.63667 2.49,-6.23c1.66,-1.59333 3.83667,-2.39 6.53,-2.39v0c2.73333,0 4.93,0.78667 6.59,2.36c1.66,1.57333 2.49,3.70667 2.49,6.4v0v2.06c0,2.58 -0.83,4.65333 -2.49,6.22c-1.66,1.56667 -3.83667,2.35 -6.53,2.35v0c-2.71333,0 -4.90333,-0.78667 -6.57,-2.36c-1.67333,-1.58 -2.51,-3.70667 -2.51,-6.38zM148.58833,-9.51v2.09c0,1.14667 0.33,2.07 0.99,2.77c0.66,0.69333 1.52333,1.04 2.59,1.04c1.06667,0 1.91667,-0.35333 2.55,-1.06c0.62667,-0.7 0.94,-1.64333 0.94,-2.83v0v-2.12c0,-1.14667 -0.31333,-2.07333 -0.94,-2.78c-0.63333,-0.70667 -1.50333,-1.06 -2.61,-1.06v0c-1.04667,0 -1.89667,0.35 -2.55,1.05c-0.64667,0.69333 -0.97,1.66 -0.97,2.9zM163.02833,15.96v-2.12c0,-2.58 0.84,-4.65667 2.52,-6.23c1.68,-1.57333 3.85667,-2.36 6.53,-2.36v0c2.71333,0 4.90333,0.77667 6.57,2.33c1.67333,1.56 2.51,3.70333 2.51,6.43v0v2.06c0,2.56 -0.82,4.63 -2.46,6.21c-1.64667,1.57333 -3.83333,2.36 -6.56,2.36v0c-2.75333,0 -4.96,-0.79333 -6.62,-2.38c-1.66,-1.58667 -2.49,-3.68667 -2.49,-6.3zM168.52833,13.93v2.14c0,1.05333 0.34333,1.95333 1.03,2.7c0.68667,0.74 1.54667,1.11 2.58,1.11v0c2.32667,0 3.49,-1.28667 3.49,-3.86v0v-2.18c0,-1.14667 -0.32333,-2.06667 -0.97,-2.76c-0.65333,-0.7 -1.51333,-1.05 -2.58,-1.05c-1.07333,0 -1.93333,0.35 -2.58,1.05c-0.64667,0.69333 -0.97,1.64333 -0.97,2.85zM174.16833,-11.65l-20.37,32.59l-4.04,-2.17l20.37,-32.6z"></path></g></g></g></svg>